<?xml version="1.0" encoding="UTF-8"?>
<svg id="Layer_2" data-name="Layer 2" xmlns="http://www.w3.org/2000/svg" viewBox="0 0 292.57 203.43">
  <defs>
    <style>
      .cls-1 {
        fill: #e30613;
      }

      .cls-2 {
        fill: #100c08;
      }
    </style>
  </defs>
  <g id="Layer_1-2" data-name="Layer 1">
    <g>
      <path class="cls-1" d="m258.52,152.03c-1.9,2.18-4.07,3.94-7.06,4.39-.38-1.79-1.48-2.13-3.06-1.55,1.61-3.36,3.21-6.72,4.82-10.09.66,1.48.82,2.61.3,3.83-.51,1.19-.95,2.98.37,3.6.97.45,2.12-.85,2.83-1.94.67-1.03,1.42-2.02,2.19-2.98,2.88-3.56,5.68-3.32,7.39.7,1.08-2.66-.03-5.53,1.05-8.1,2.71-6.44,7.16-11.31,13.3-14.65-.18,1.49-.85,2.66-2.18,3.42-2.61,2.27-6.87,3.22-6.33,7.98-2.01,3.29-1.35,6.95-1.44,10.5-.09,2.49-.19,4.99-.28,7.48-.15.15-.3.3-.45.46-.77.2-1.54.4-2.3.61-.18-2.22-1.06-2.33-2.47-.82-.48.3-.95.61-1.43.91-.17-.48-.33-.95-.5-1.42,1.61-.97,1.9-2.61,1.58-4.16-.23-1.07-2.02-1.14-2.49-.8-1.25.91-4.16-.47-3.81,2.63Z"/>
      <path class="cls-1" d="m267.66,155.7c.77-.2,1.54-.4,2.3-.61.05.55.11,1.09.16,1.64-.12.69-.24,1.38-.37,2.07-.05.34-.11.69-.16,1.03-.2.53-.41,1.06-.61,1.59-.76.07-1.3-.33-1.78-.83.15-1.63.31-3.26.46-4.89Z"/>
      <path class="cls-1" d="m203.57,184.85c-.42-.94.14-2.5-1.3-2.73-.97-.15-1.76.8-2.32,1.6-1.72,2.47-4.2,3.96-6.75,5.37-.78-1.64.62-2.09,1.52-2.85,1.38-1.16,3.32-1.72,3.98-3.65,1.53-1.81,2.08-4.62,4.81-5.22,1.54-.34,4.13-1.61,2.78,2.22-.63,1.79.73,1.02,1.51.69.63,1.26-1.08,1.14-1.16,1.99-.8.93-1.59,1.86-2.39,2.8-.23-.07-.45-.15-.68-.22Z"/>
      <path class="cls-1" d="m198.71,182.59c-.67,1.93-2.61,2.49-3.98,3.65-.9.76-2.29,1.22-1.52,2.85-.75.74-1.85,1.17-2.04,2.38-1.41,1-2.82,1.99-4.23,2.99.67-1.62,1.34-3.24,2-4.86,3.26-2.33,6.51-4.67,9.77-7Z"/>
      <path class="cls-1" d="m201.37,190.48c-.31.33-.63.65-.94.98-1.94-1.33.06-2.25.49-3.13.63-1.29,1.75-2.33,2.65-3.48.22.07.45.14.68.22-.96,1.8-1.92,3.61-2.88,5.41Z"/>
      <path class="cls-2" d="m280.64,125.26s-.02.01-.03.02c0,0,.02.02.02.03v-.05Zm.36-2.07l.02.03v-.04s0,0-.02.01Zm-89.04,60.39h0s.04,0,.06-.02h-.04s-.01,0-.01.02Zm-90.08,1.35h0s0,0,0-.01c0,0,0,0-.02,0h0Z"/>
      <path class="cls-2" d="m289.11,99.93c2.23-1.63,2.91-4.04,3.4-6.59.27-1.42-.38-2.99-1.44-2.86-2.84.33-1.79-1.98-2.5-3.04-2.04,1.54-4.98.1-6.89,2.09,2.81.54,4.74,1.47,1.82,4.38-.66.67-.67,1.41-.04,1.94,1.34,1.14.69-.64,1.14-.9.69-.4,1.38-.86,1.97-.17.53.61.3,1.71-.19,2.04-2.7,1.8-3.85,6.22-8.37,5.02-.85-.22-1.11.73-1.5,1.37-2.31,3.89-3.01,3.89-5.28.15-.26-.42-.54-.83-.8-1.25-.61-2.27-2.26-3.98-3.31-6.01-1.7-1.89-2.95-3.98-3.03-6.6-.91.33-1.04,1.19-1.34,1.95-.31,1.61,1.32,2.66,1.21,4.22,1.89.28,2.28,1.57,2.11,3.2-.08.85-.56,1.24-1.47,1.19-2.41-.14-2.12-2.32-2.87-3.71-.33-.5-.56-1.2-1.02-1.46-3.19-1.8-1.44-3.1.38-4.43-.11-.13-.2-.26-.3-.4-2.81.41-5.39,1.49-7.87,2.81-.66.34-1.4.9-1.06,1.72.15.36,1.01.62,1.54.61,1.61-.01,2.17.89,2.74,2.24.49,1.18,1.2,2.51,2.78,2.76,3.02,5.23,3.08,10.5.16,15.79l-.14.15-.18.11c-.14.37-.28.74-.43,1.11v.03c.35.04.84.26,1.04.1,3.16-2.62,4.3-.72,5.4,2.14,1.3,3.39-1.21,3.96-3.25,5.03-2.29,1.19-4.6,2.36-6.82,3.67-1.38.82-2.59,1.51-2.48,3.8.12,2.3-2.49,3.34-4.16,4.78-.57-1.12.73-1.23.85-2.33-1.68.66-3.12,1.2-5.01.41-1.65-.69-3.1.98-3.46,2.93-.8,4.33-1.46,4.78-5.77,3.87-2.38-.49-7.55,2.51-7.99,4.88-.33,1.84-1.57,2.25-2.9,3.23-4.05,3.01-9.15,3.54-13.23,6.24-1.46.97-2.59.41-3.77-.21-3.39-1.76-6.74-3.58-10.11-5.37-.24-.33-.48-.64-.71-.96-2.68,1.13-5.36,1.85-7.59-.79-.56-.67-.9-.64-1.4-.12-1.61,1.73-1.95-.09-1.95-.92,0-3.47-1.25.09-1.74-.36-1.52,2.15-.03,5.14-1.99,7.18,1.05,1.49.93,3.01.14,4.57-.64,1.24-1.13,1.86-2.84,1.04-3.04-1.47-3.28-1.17-3.39,1.9-.13,3.95-3.01,6.85-7.28,7.01-6.01.23-11.77-.33-17.66-2.45-7.84-2.83-16.15-4.45-24.35-6.14-2.01-.42-4.34.41-6.43-.66-.26-.14-1.02.06-1.02.09.05,4.38-3.77,1.74-5.44,2.99-1.3.98-2.14.27-2.95-.92-1.71-2.53-3.55-4.98-5.76-8.06,2.66,6.54,2.1,7.61-4.29,8.28-3.7.39-7.44.38-9.44-3.8-.21-.44-1.06-.8-1.63-.8-6.02-.08-9.92-4.57-14.75-7.09-10.59-5.52-18.86-13.66-25.83-23.26-2.08-2.86-5.23-4.94-6.25-8.61-.21-.71-.98-1.25-1.79-1.04-5.16,1.36-8.43-1.1-10.93-5.27-.64-1.06-1.44-2.02-2.27-3.18,2.81.6,2.58-1.14,1.78-2.48-1.4-2.33-2.86-4.79-4.86-6.55-3.52-3.08-5.42-6.74-5.46-11.32,0-1.49-.55-2.63-1.25-3.8-.68.1.21,2.44-1.21,1.09-1.4-1.35-2.24-3.26-3.47-5.14,1.95-.32,2.12,1.15,2.93,1.71.42-2.28.83-4.57,1.26-6.86-.04-.82-.07-1.65-.11-2.47-2.69-1.18-5.09-1.81-4.49,3.04-3.3-2.82-4.47-6.21-5.53-9.7-.39-1.25-.23-3.3-2.65-2.45.34,1.47.17,3.09,1.25,4.36,3.99,5.08,5.25,11.41,7.7,17.2.28.65,2.19,3.67-1.57,2.96-.26-.05-.11.86.15,1.28,1.11,1.78,1.26,4.01,3.66,5.94-5.22-1.58-5.25-1.57-5.61-2.94-.56-2.1-1.08-4.21-1.85-7.24-1.08,3.04-.54,4.96-.08,6.97.37,1.61,1.75,3.15.68,4.97.28.36.56.71.84,1.07,1.92,3.82,3.77,7.67,5.78,11.44,1,1.86,1.79,3.64,1.66,5.87-.16,2.83,2.36,4.44,3.62,6.62.8,1.37,1.9,2.56,2.86,3.84.17-1.81-1.69-2.97-1.5-4.8.1-.96-.15-2.1.89-2.63.89-.46,1.61.18,2.29.75,2.35,1.94,4.79,3.61,6.03,6.74,1.02,2.58,2.99,4.8,4.67,7.09,1.57,2.14,1.12,2.81-1.58,2.03.38,3.01,3.26,3.75,4.41,5.81.12.15.25.29.38.43,2.07-1.19,3.11,1.13,4.75,1.4,3.86.04,5.97,2.9,8.19,5.36,1.28,1.41-.99,1.47-1.79,2.79,7,2.37,13.76,5.14,14.82,14.46,3.99-5.35,6.02-.61,8.69.58-2.78.2-5.57.41-8.35.61-.45.6-1.55.77-1.21,1.88,1.27.51,2.53,1.02,3.79,1.52.79-.13,1.58-.25,2.37-.38,3.44-2.73,6.54.02,9.54.92,3.65,1.08,7.27,2.62,10.12,5.58-.37,1.07-2.01.13-2.69,1.29.63.49,1.27.99,1.9,1.48,1.6,0,3.16.25,4.55,1.04.87.49,2.54-.15,2.61,1.35.08,1.71-1.65,1.39-2.68,1.81.38.42-.81,1.51.66,1.46,2.61-.09,5.23-.15,7.84-.22h0s0-.01.02-.01c.1-.34.16-.72.31-1.04.81-1.64-2.31-.59-1.38-1.84,1.14-1.53,2.47.12,3.64.41,2.15.54,4.03.66,6.06-.51.73-.42,2.59-.6,2.89.64.42,1.78-1.36.42-2.09.98-2.82,2.2-6.35.32-9.43,1.35h0c.35.53.71,1.05,1.06,1.56l.11.18c.19-.1.38-.18.58-.25.43.03.85.05,1.27.07.85.03,1.7.06,2.56.1.36.02.72.04,1.08.05v.05c2.99-.17,5.89.13,8.18,2.29,1.14,1.08,2.29.44,3.47.47,2.37.05,4.79-1.3,7.12.18.5-.24,1.01-.47,1.51-.71,0,.12.06.27,0,.34-.4.52-.91.66-1.52.38-.65.74-1.3,1.48-1.96,2.22-.72.58-1.43,1.17-2.14,1.74.07.89-.56,1.33-1.17,1.77,3.11.09,5.53-1.99,7.93-3.29,4.43-2.4,8.95-1.74,13.31-1.43,2.09.15,4.05.13,6.17-.23-1.29,1.09-1.66,2.55-2.7,4.25,5.44-3.36,11.03-4.59,16.52-6.34-3.27,1.82-4.99,5.1-7.6,7.5-.23.56-.46,1.14-.69,1.7.47-.08,1.07,0,1.41-.26,6.47-5.2,13.76-9.1,20.81-13.37,6.33-3.84,12.69-7.4,20.8-8.17-1.43,2.4-4.89,2.85-4.58,5.93,1.59-.59,2.48-2.45,4.41-2.49-.96,4.12-2.73,5.46-5.81,4.4-.02.01-.04.01-.06.02-.75,1.14-1.51,2.28-2.25,3.42-.73.72-.96,1.58-.77,2.59,3.26-2.34,6.51-4.67,9.77-7,1.54-1.81,2.08-4.62,4.81-5.22,1.54-.34,4.13-1.61,2.77,2.22-.63,1.79.73,1.02,1.51.69l.12-.02c.41-1.96,1.79-3.12,3.39-4.1-1.1-1.72-2.79-1.14-4.35-1.16-.84-.02-1.84-.12-2.15-1.11-.29-.97.37-1.59,1.09-2.14,4.13-3.2,9.44-3.69,13.85-6.41-2.15,2.96-2.71,6.52-4.88,9.2.97,1.73-.92,2.03-1.51,2.98,1.48,1.46,1.19,2.99.18,4.55,2.21.67,2.34-1.2,2.98-2.44.31-1.82,2.26-2.94,2.1-4.95.21-7.9,6.19-11.65,11.52-15.78,4.4-3.42,9.01-6.58,13.53-9.83,2.84-2.05,3.92-6.06,8.34-7.09-1.18,3.12-2.54,5.63-5.04,7.5-3.44,2.57-4.01,5.68-1.85,9.55,1.59-.99,2.34-2.65,3.27-4.16,1.6-3.36,3.21-6.72,4.82-10.09.67,1.48.82,2.61.3,3.83-.51,1.19-.95,2.98.37,3.6.96.46,2.12-.85,2.83-1.94.67-1.03,1.42-2.02,2.19-2.98,2.88-3.56,5.68-3.32,7.39.7,1.08-2.66-.03-5.53,1.05-8.09,2.71-6.44,7.16-11.3,13.27-14.63-.62-.84-.41-1.52.39-2.08-.59-.74-.82-1.68-.17-2.35,2.3-2.36,2.7-5.44,3.44-8.4,0-.2-.03-.4-.05-.6-.29-.29-.31-.57.05-.82l.08-.21c-1.38-1.56-.39-3.15-.03-4.72-1.11-1.31-1.71-2.57-.73-4.37,1.35-2.46,3.45-1.9,5.51-1.78Zm-277.36-.7c2.26,4.52,5.85,7.16,7.08,11.3-2.76-3.18-5.64-6.27-7.08-11.3Zm75.99,67.76c-5.1-3.5-11.53-4.4-16.34-8.64-1.35-1.19-3.47-2.32-5.81-2.09-.97.09-2.45.52-2.98-.8-.57-1.42,1.42-1.49,1.68-2.58-8.56-2.3-12.27-10.69-19.06-15.19-3.84-2.54-4.62-7.16-7.4-10.5,15.29,16.71,33.32,29.62,53.7,39.53-1.37,1.4-2.64,1.06-3.79.27Zm106.66-14.42c.87-.4,1.8-.74,2.74-.05.39.29.71.69,1.07,1.02,1.44,1.37,4.8,2.14,3.8,4.27-.98,2.09-4.03-.23-6.24.35-1.25.33-1.98-1.17-2.25-2.48-.26-1.19.08-2.18.9-3.11Zm-7.76-1.36c.29,2.48,3.45,5.14-.63,7.18-1.66.83-2.23,1.15-2.44-1.2-.25-2.76,1.59-4.17,3.07-5.98Zm-91.59,17.29c.29.17.58.34.88.51h0s0,0,0,0h0c-.57.91.32,1.57.78,3.12-1.27-1.49-2.52-2.08-1.66-3.63Zm105.32-.2c5.58-2.85,10.95-5.56,16.29-8.32,5.35-2.77,10.29-6.38,16.25-7.91-2.48,4.29-29.6,17.93-32.53,16.23Zm30.95-18.81c-.06-2.99,3.55-2.9,3.81-5.23,1.58,3.84-1.91,3.65-3.81,5.23Zm38.15-24.83c-.78.36-2.19.23-2.84-.29-.73-.57.14-1.56.66-2.18.7-.82,1.48-.63,2.11.22.51.75.88,1.87.08,2.25Zm9.05-8.84c.34-.08.67-.16,1-.23-.21.28-.43.56-.64.84-.16.17-.33.35-.51.51.72,2.02-.72,2.38-2.11,2.56-1.54.19-1.43-1.05-1.87-2.11-1.71-4.11,1.9-6.82,2.5-10.29.04-.25.81-.5,1.26-.52.72-.04,1.24.42,1.02,1.15-.3,1.02.23,1.65.76,2.34,2.16.99.44,1.72-.29,2.03-2,.84-2.03,2.1-1.12,3.72Z"/>
      <path class="cls-1" d="m245.13,159.03c1.59-.99,2.34-2.65,3.27-4.16,1.58-.58,2.68-.23,3.06,1.55-2.88.64-4.37,2.98-5.89,5.12-1.52,2.13-2.86,3.63-5.95,2.9-3.82-.91-6.88,1.21-9.63,3.64-.73.64-.04,1.04.39,1.45-.59,2.56-2.17-.33-3.07.56-.05-.18-.12-.35-.21-.5,2.93-4.98,8.12-6.12,13.07-7.54,2-.57,4.18-.55,4.95-3.01Z"/>
      <path class="cls-1" d="m258.52,152.03c-.34-3.09,2.57-1.72,3.81-2.63.48-.35,2.27-.28,2.49.8.33,1.55.03,3.19-1.58,4.16-.82-.04-2.25,1.4-1.97-1.16.15-1.35-2.12,0-2.76-1.17Z"/>
      <path class="cls-1" d="m265.18,154.87c-.49,2.58-2.21,4.28-4.16,5.82.22-2.02,1.02-3.72,2.73-4.92.47-.3.95-.61,1.43-.91Z"/>
      <path class="cls-1" d="m272.96,136.33c-.27.11-.55.22-.83.32-.54-4.76,3.72-5.72,6.33-7.98.4.6.79,1.2,1.19,1.8-.13.18-.26.36-.39.54-3.6,0-4.45,3.25-6.31,5.32Z"/>
      <path class="cls-1" d="m3.15,59.25c.02-1.23.04-2.46.06-3.69.88-.65,1.78-.71,2.71-.12-.37.4-.94.74-.41,1.39.05.07.25.1.33.05.7-.42.35-.94.11-1.44,4.85-4.12,6.73-9.11,4.56-15.31,0,0,0,.02,0,.02,1.1-1.51.63-3.14.38-4.75.08-1.99-.21-3.98-1.09-5.72-.9-1.77-2.65-2.35-4.64-2.01-1.48-.83-2.96-1.65-4.45-2.47-.2-.41-.41-.81-.61-1.22.62-2.17,1.21-4.36,3.03-5.91.95,1.36-.09,3.68,2.05,4.46,3.18,1.16,5.26,3.4,6.65,6.42.48,1.04,1.28,1.94,2.61.92.94,6.68,1.2,13.32-.76,19.89-.38.77-.73,1.56-1.15,2.31-3.69,6.47-3.33,8.7,1.92,14.04,1.91,1.95,3.44,4.23,2.3,7.24-2.7-1.18-5.1-1.81-4.49,3.04-3.29-2.81-4.47-6.21-5.53-9.7-.38-1.25-.23-3.3-2.65-2.45-.5-1.63.61-3.56-.94-5Z"/>
      <path class="cls-2" d="m14.44,29.87c-1.33,1.02-2.13.12-2.61-.92-1.4-3.02-3.47-5.26-6.65-6.42-2.14-.78-1.09-3.09-2.05-4.46,1.46-1.3,2.14-3,2.57-4.84,1.43-.15.45-.79.26-1.26.04-.25.08-.5.12-.75.87-.85,2.63-1.16,1.8-3.02.37-.3.75-.6,1.12-.91,3.62,2.71,4.38-2.19,6.88-2.59.07.72.14,1.44.21,2.16v-.09c-.07.37-.15.74-.23,1.11,0,0,.03-.06.03-.06-1.62,1.95-4.99,2.21-5.26,5.45-1.59,3.47,1.22,5.73,2.31,8.46.07,2.79,1.68,5.29,1.51,8.13Z"/>
      <path class="cls-1" d="m6.37,8.96c.5-.25,1.01-.5,1.51-.75.82,1.86-.93,2.17-1.8,3.02.1-.76.2-1.51.29-2.27Z"/>
      <path class="cls-1" d="m5.95,11.97c.19.48,1.17,1.11-.26,1.26.09-.42.17-.84.26-1.26Z"/>
      <path class="cls-1" d="m177.79,194.42c-.38,1.42-1.57,2.18-2.53,3.13-.78.57-1.56,1.13-2.35,1.69-.39-.08-.79-.16-1.18-.23,0,0,0,0,0,0,1.77-1.84,3.54-3.69,5.31-5.53l.75.95Z"/>
      <path class="cls-1" d="m177.79,194.42c-.25-.32-.5-.64-.76-.95.01-.34.03-.68.04-1.02,1.14-1.81,3.4-2.78,4.02-5.05-1.23-.44-1.6.93-2.78.82-6.2-.55-11.06,2.11-14.96,6.76-1.4,1.09-2.8,2.17-4.19,3.26-.57.4-1.14.81-1.72,1.21-.23.15-.47.3-.7.45-1.56.71-3.12,1.43-4.68,2.14-.35-2.05,1.84-2.73,2.35-4.31.18-.1.37-.17.57-.21.48-.08,1.08,0,1.41-.27,6.47-5.19,13.76-9.09,20.81-13.37,6.33-3.84,12.69-7.4,20.8-8.17-1.43,2.41-4.89,2.86-4.58,5.94h-.06c-.79.42-1.59.81-1.4,1.93l.02-.03c-.76,1.15-1.52,2.3-2.27,3.45-.86-1.76-1.93-1.29-3.27-.47-2.78,1.69-4.73,4.21-6.91,6.51-.42-.07-.65.11-.71.53-.35.28-.69.57-1.04.85Z"/>
      <path class="cls-1" d="m15.6,82.69c.42-2.29.84-4.57,1.25-6.86.7,1.27,1.7,2.46,2.06,3.82,2.13,8.1,7.4,14.53,11.42,21.61,1.17,2.06,3.61,3.11,5.7,2.57,2-.52,2.85.43,3.67,1.48,1.51,1.94,3.03,3.79,5.25,4.94.73.38,1.25.98,1.13,1.76-.3,1.88,1.08,2.41,2.2,3.42,2.23,2.02,5.22,3.82,5.53,7.01.16,1.63.2,2.34,1.77,2.9,4.53,1.6,6.92,5.95,10.18,8.99,1.75,1.63,3.33,3.68,5.55,4.93,4.16,2.36,9.82,1.65,12.86,6.29.02.03.27-.12.34-.07,6.15,3.45,13.34,3.17,19.76,5.55,3.73,1.38,3.74-.26,3.08-2.99,4.97,4.15,10.03,7.83,17.06,7.8,4.98-.02,10.09.34,14.93,1.45,8.16,1.86,16.59,1.53,24.7,3.55.82.21,1.69.08,2.11-1.01.44-1.15,1.7-1.06,2.57-1.55,3.95-2.21,8.78-1.18,12.57-3.7,1.05,1.49.93,3.02.13,4.57-.63,1.23-1.13,1.86-2.84,1.03-3.04-1.47-3.29-1.17-3.39,1.9-.13,3.95-3.02,6.85-7.28,7.01-6.01.23-11.77-.34-17.65-2.46-7.84-2.83-16.15-4.45-24.36-6.14-2.02-.42-4.34.41-6.43-.66-.27-.14-1.02.06-1.02.1.04,4.38-3.77,1.73-5.44,2.99-1.3.98-2.15.27-2.95-.92-1.71-2.53-3.55-4.98-5.76-8.06,2.66,6.54,2.11,7.6-4.29,8.28-3.7.39-7.44.38-9.44-3.8-.21-.44-1.07-.8-1.63-.8-6.02-.08-9.92-4.57-14.75-7.09-10.59-5.52-18.87-13.66-25.84-23.26-2.08-2.87-5.23-4.94-6.25-8.61-.2-.71-.97-1.25-1.79-1.04-5.17,1.36-8.43-1.11-10.93-5.27-.64-1.06-1.44-2.03-2.27-3.18,2.81.6,2.59-1.14,1.78-2.48-1.4-2.33-2.86-4.79-4.87-6.55-3.52-3.09-5.41-6.74-5.45-11.32-.01-1.49-.55-2.63-1.26-3.8-.58-.78-1.16-1.56-1.74-2.34Z"/>
      <path class="cls-1" d="m107.37,148.06c.66,2.73.66,4.37-3.08,2.99-6.42-2.38-13.62-2.1-19.76-5.55-.08-.04-.32.11-.34.07-3.05-4.64-8.71-3.94-12.86-6.29-2.22-1.26-3.8-3.3-5.55-4.93-3.27-3.04-5.66-7.39-10.18-8.99-1.57-.56-1.61-1.27-1.77-2.9-.32-3.19-3.31-4.99-5.53-7.01-1.12-1.01-2.5-1.54-2.2-3.42.12-.78-.4-1.38-1.13-1.76-2.22-1.15-3.74-3.01-5.25-4.94-.82-1.05-1.66-2-3.67-1.48-2.09.54-4.52-.51-5.7-2.57-4.03-7.08-9.29-13.51-11.42-21.61-.36-1.36-1.35-2.55-2.06-3.82-.04-.83-.07-1.65-.11-2.47,1.14-3.01-.39-5.29-2.3-7.24-5.25-5.35-5.61-7.57-1.92-14.04.43-.75.77-1.54,1.15-2.31,1.24,1.3,3.14,2.42,3.57,3.94.56,2,4.07,3.76,1.86,5.74-3.4,3.04-2.16,4.3,1.04,5.72.52.23,1.12.7,1.32,1.2.93,2.34,1.77,4.5,4.9,2.29.72-.51,1.28.47,1.71,1.04.82,1.09,5.42,7.68,2.12,9.77-.84.53-1.53,2.54-.42,2.55,2.32,0,1.5,1.54,1.75,2.46.29,1.07.68,1.66,1.86,1.94,1.95.48,3.57,2.67,5.93.67.66-.56,1.55.43,2.08,1.15.95,1.31,4.95,7.34,2.51,8.83-.87.53-1.43,1.54-.22,1.91,3.68,1.1,3.46,8.16,9.25,6.01.31-.12,1.12.84,1.56,1.4.93,1.17,1.75,2.41,2.65,3.6,1.21,1.62,2.09,4.06,4.81,1.81.44-.36,1.39-.44,1.59.29,1,3.67,2.16,9.13,3.32,11.17,1.57,2.74,3.02,6.08,6.36,7.31,3.2,1.18,6.33,2.42,9.29,4.13.97.56,1.69,1.79,3.28,1.18,3.28-1.25,6.48.28,9.63.82,3.01.52,3.32,2.48,1.19,5.13-1.02,1.28-.58,1.94.77,1.8,4.13-.41,6.85,2.38,10.04,4.14l-.05.27Z"/>
      <path class="cls-1" d="m212.61,134.61c3.14,2.04,5.62.26,8.04-1.48.88-.63,1.59-1.51,2.37-2.28.08.05.15.12.23.15.05.02.12-.04.19-.06-.14-.02-.28-.04-.43-.06-1.29-2.01-.11-4.02.03-6.03.01-.16.71-.47.89-.37,2.94,1.61,4.33-1.1,6.08-2.33,2.93-2.04,6.78-2.57,9.03-5.67,2.12-2.92,4.32-5.72,8.05-6.82.48-.14.62-1.46.93-2.25.17.08.41.12.52.26,2.8,3.64,5.47,3.74,8.61.3.66-.72,1.28-1.48,1.92-2.23.97.89.15,1.72-.02,2.62-.47,2.53-1.56,5.09,0,7.63l-.14.15s-.17.11-.17.11c-.14.37-.28.74-.43,1.1,0,0-.02.02-.02.02-3.08,2.78-3.66,8.46-9.43,8.14-.07,0-.24.34-.23.51.26,3.62-3.36,3.41-5.12,4.69-3.32,2.42-5.54,6.35-9.84,7.48-.15.04-.01.79-.22,1.02-.56.62-1.31.91-2.22.74.38-.54.72-1.01,1.63-2.3-4.88,3.01-9.64,3.88-13.78,6.72-2.19,1.5-5.02,4.07-8.93,2.85-1.72-.54-1.81-1.09-1.34-2.02,1.7-3.39,1.65-7.38,3.76-10.61Z"/>
      <path class="cls-1" d="m181.3,154.58c-3.79,2.52-8.62,1.49-12.57,3.7-.87.48-2.13.4-2.57,1.55-.42,1.09-1.28,1.22-2.11,1.01-8.11-2.02-16.54-1.68-24.7-3.55-4.84-1.11-9.94-1.47-14.93-1.45-7.04.03-12.09-3.65-17.06-7.8,0,0,.05-.27.05-.27.97-.51,2.31-2,2.83-1.4,2.66,3.1,6.49.84,9.33,2.37,1.82.98,3.46,1.11,5.26.38.76-.31,1.39-.42,2.01.24,3.31,3.52,7.92,2.09,11.84,2.65,5.12.73,10.43.22,15.45,2.08.8.3,1.75.38,2.39-.47.58-.78-.05-1.37-.39-2.01-.33-.62-1.08-1.1-.56-2.25,1.45.52,3.12-1.03,4.21-.43,2.28,1.25-1.2,2.47-.49,3.96,2.73,1.48,3.93-2.02,6.36-1.97.9.02,3.91.14,1.96-2.75-.64-.95.92-1.27,1.3-1.19,3.24.7,6.16-1.32,9.34-.95,1.63.19,3.32.91,4.88-.27l.17,1.66c-1.52,2.15-.02,5.14-1.99,7.17Z"/>
      <path class="cls-1" d="m212.61,134.61c-2.11,3.23-2.06,7.22-3.76,10.61-.47.93-.38,1.49,1.34,2.02,3.91,1.22,6.74-1.35,8.93-2.85,4.14-2.84,8.9-3.71,13.78-6.72-.91,1.29-1.25,1.77-1.63,2.3.91.17,1.66-.12,2.22-.74.21-.23.07-.98.22-1.02,4.3-1.13,6.51-5.06,9.84-7.48,1.77-1.29,5.39-1.08,5.12-4.69-.01-.17.16-.51.23-.51,5.77.32,6.35-5.36,9.43-8.14.36.04.86.26,1.06.1,3.16-2.62,4.3-.72,5.4,2.15,1.31,3.39-1.21,3.96-3.25,5.03-2.29,1.19-4.6,2.36-6.82,3.67-1.38.81-2.59,1.51-2.48,3.8.12,2.29-2.49,3.33-4.16,4.78-.57-1.12.73-1.24.85-2.34-1.68.66-3.13,1.2-5.01.41-1.65-.69-3.1.98-3.46,2.93-.8,4.33-1.45,4.78-5.76,3.88-2.38-.5-7.55,2.51-7.99,4.87-.34,1.84-1.58,2.25-2.9,3.23-4.06,3-9.15,3.54-13.23,6.25-1.46.97-2.59.41-3.77-.21-3.39-1.76-6.74-3.58-10.11-5.38.56-.26,1.1-.65,1.68-.77,9.56-1.82,11.49-6.12,6.23-13.93.74-1.66,3.06.78,3.19-.88.23-2.89,2.52-1.49,3.7-2.26.37.63.74,1.26,1.11,1.88Z"/>
      <path class="cls-1" d="m245.13,159.03c-.77,2.46-2.95,2.44-4.95,3.01-4.95,1.42-10.14,2.57-13.07,7.54-.69,1.15-1.84,1.75-2.95,2.38-.3.05-.59.09-.89.13-1.22,1.44-2.84,2.18-4.65,2.58.21-7.9,6.19-11.66,11.52-15.79,4.4-3.41,9-6.57,13.53-9.83,2.84-2.04,3.92-6.06,8.35-7.08-1.18,3.12-2.54,5.63-5.04,7.5-3.44,2.57-4.01,5.67-1.85,9.55Z"/>
      <path class="cls-1" d="m5.32,68.6c3.99,5.08,5.25,11.41,7.71,17.2.28.66,2.19,3.67-1.56,2.96-.26-.05-.12.86.15,1.28,1.1,1.78,1.25,4.01,3.66,5.95-5.22-1.58-5.25-1.57-5.62-2.94-.56-2.1-1.08-4.2-1.85-7.25-1.08,3.04-.53,4.96-.07,6.97.37,1.61,1.75,3.14.68,4.96-.63-.51-1.26-1.01-1.89-1.51-1.03-2.55-2.05-5.1-3.08-7.65.01-.29.02-.57.03-.86-.1-.26-.19-.52-.29-.79.86-4.1,2.22-8.39.67-12.36-1.1-2.82-.66-4.38,1.47-5.98Z"/>
      <path class="cls-1" d="m43.53,143.41c3.86.04,5.97,2.9,8.19,5.35,1.28,1.41-.99,1.47-1.79,2.79,7,2.37,13.76,5.13,14.82,14.46,3.99-5.35,6.01-.62,8.69.58-2.78.2-5.56.41-8.34.61-1.98-2.57-4.13-4.9-7.54-5.51-3.25-1.12-5.32-4.51-9.11-4.67-.57-.02-1.11-.88-1.66-1.35.36-2.67-.34-5.21-1.08-7.7-.47-1.6-2.44-2.54-2.17-4.55Z"/>
      <path class="cls-1" d="m204.61,135.87c5.26,7.81,3.32,12.11-6.23,13.93-.59.11-1.12.5-1.68.77-.24-.32-.48-.64-.71-.96.67-1.69.42-2.98-1.65-2.04-2.85,1.31-2.61-.18-2.3-2.07.22-1.33,1.3-2.86-.77-3.72.42-.37.85-.73,1.27-1.1,3.21-.32,5.29-3.95,9.04-3,.76.19.45-1.11.14-1.77.97,0,1.93-.02,2.9-.03Z"/>
      <path class="cls-1" d="m191.26,141.77c2.07.86.99,2.39.77,3.72-.31,1.89-.55,3.38,2.3,2.07,2.06-.95,2.32.35,1.65,2.04-2.68,1.13-5.36,1.86-7.59-.79-.56-.67-.9-.64-1.39-.12-1.61,1.73-1.95-.09-1.95-.92,0-3.47-1.26.09-1.75-.36-.06-.55-.11-1.11-.17-1.66.91-1.4.2-2.26-.98-2.96.66-1.68,2-2.39,3.49-1.5.65.39,4.03-.28,1.7,2.44-.02.03.44.69.69.69.43,0,1.06-.14,1.26-.45.81-1.22,1.17-2.9-.05-3.68-1.95-1.25-3.51-2.58-4.09-4.87.78-1.27,2.9-1.35,2.92-3.29.42-.7.84-1.4,1.27-2.1,3.57,3.13,7.13,6.27,12.38,5.87.31.66.62,1.96-.13,1.77-3.75-.95-5.83,2.68-9.04,3,0-2.03,2.48-1.28,3.21-2.94-1.66-.34-3.15-2.24-4.69-.96-1.66,1.38-1,3.37.21,5Z"/>
      <path class="cls-1" d="m145.42,196.94c-1.79.9-3.18,2.61-5.4,2.65-.21-.29-.42-.59-.63-.88.73-.65,1.45-1.3,2.18-1.95.72-.46,1.55-.79,2.12-2.26-5.56-.95-10.88-2.58-16.16.76l-4.27,2.64c-1.24-.65-2.48.13-3.72,0,.12-1.55,1.49-1.87,2.5-2.54,3.11.09,5.53-1.99,7.93-3.29,4.43-2.4,8.95-1.74,13.31-1.43,2.09.15,4.04.14,6.16-.22-1.29,1.09-1.65,2.55-2.7,4.25,5.43-3.36,11.03-4.6,16.51-6.34-3.26,1.82-4.99,5.1-7.59,7.5-.03-1.43.39-3.18-2.21-2.17-2.7,1.05-5.6,1.61-8.04,3.3Z"/>
      <path class="cls-1" d="m23.18,126.58c.17-1.81-1.7-2.97-1.51-4.79.1-.97-.14-2.1.9-2.64.89-.46,1.6.18,2.29.75,2.35,1.94,4.79,3.61,6.03,6.75,1.02,2.58,3,4.8,4.67,7.09,1.57,2.14,1.13,2.81-1.58,2.03.37,3.01,3.26,3.75,4.41,5.81-2.1,1.39-2.96-1.3-4.61-1.4-.36-.3-.72-.61-1.08-.91-2.01-2.28-3.34-5.12-5.8-7.02-.3-.38-.59-.77-.89-1.15.13-2.17-1.96-2.89-2.85-4.39l.03-.11Z"/>
      <path class="cls-1" d="m70.04,170.23c3.44-2.73,6.53.02,9.54.91,3.65,1.08,7.26,2.63,10.12,5.58-.37,1.07-2.01.13-2.69,1.3.63.49,1.26.99,1.9,1.48-.41.27-.82.55-1.23.82-2.46-.34-4.93-.68-7.39-1.02.73-1.94-.48-3.18-1.91-3.72-3.2-1.21-5.43-3.8-8.34-5.36Z"/>
      <path class="cls-1" d="m211.3,176.16c-1.1-1.72-2.79-1.13-4.35-1.16-.84-.02-1.84-.12-2.15-1.11-.3-.96.37-1.58,1.09-2.14,4.13-3.19,9.44-3.69,13.85-6.41-2.15,2.95-2.71,6.51-4.88,9.2-.24.17-.48.34-.73.51-1.27-.56-1.84.65-2.72,1.08l-.12.04Z"/>
      <path class="cls-1" d="m5.32,68.6c-2.13,1.6-2.56,3.16-1.47,5.98,1.55,3.97.19,8.25-.67,12.36-.32-.16-.64-.32-.95-.48-.44-1.98.67-4.06-.36-6.01,1.16-2.81.52-5.63-1.31-7.6-1.72-1.85.98-1.39,1.06-2.64.18-3.01-2.04-6.02-.1-8.99.48-.73.9-1.45,1.62-1.96,1.55,1.43.44,3.37.94,5,.34,1.48.17,3.1,1.24,4.36Z"/>
      <path class="cls-1" d="m70.04,170.23c2.92,1.56,5.15,4.15,8.34,5.36,1.43.54,2.64,1.78,1.91,3.72-1.96,1.68-4.52-1.03-6.46.87-.42.52-.5,1.07-.17,1.66-.85.21-.93-.65-1.28-1.03-.57-.61-.94-1.39-1.39-2.1,1.06-.96,3.03.52,3.86-1.54-1.81-.24-2.82-1.34-3.34-2.93-.55-1.67-1.77-2.49-3.43-2.76-.14-.29-.27-.58-.41-.88.79-.13,1.58-.25,2.37-.38Z"/>
      <path class="cls-1" d="m114.14,191.79c-1.92-.06-3.43,2.02-5.52,1.06.03-.84.69-1.21,1.25-1.66q2.03-1.62-.44-3.36s0,0,0,0c-.29-.38-.58-.76-.87-1.14,2.99-.17,5.89.13,8.17,2.29,1.14,1.08,2.29.44,3.47.46,2.37.05,4.79-1.29,7.12.18,0,0,0,.02,0,.02-.65.74-1.31,1.47-1.96,2.21-3.17-.67-6.36-.9-9.57-.34,0,0,0,0,0,0-.63-.35-1.15-.12-1.64.29Z"/>
      <path class="cls-1" d="m9.26,98.82c1.92,3.82,3.77,7.67,5.78,11.44.99,1.87,1.79,3.64,1.66,5.88-.16,2.83,2.36,4.43,3.62,6.62.79,1.37,1.9,2.56,2.87,3.84,0,0-.03.11-.03.11-2.93-1.38-3.84-4.72-6.34-6.52.17-1.32-.4-2.1-1.7-2.36-.56-.81-1.12-1.62-1.67-2.42,1.56-2.97-.3-5.34-1.34-7.87-1.16-2.83-3.43-5.3-2.84-8.7Z"/>
      <path class="cls-1" d="m194.4,152.57c.87-.4,1.8-.74,2.73-.05.39.29.71.69,1.07,1.03,1.45,1.37,4.8,2.14,3.8,4.27-.98,2.09-4.03-.23-6.24.35-1.25.33-1.97-1.17-2.25-2.48-.25-1.19.08-2.18.89-3.12Z"/>
      <path class="cls-1" d="m42.92,151.95c1.79-1.77,1.53-3.61-.21-5.08-1.65-1.4-2.66-3.22-3.94-4.86,2.07-1.19,3.11,1.13,4.76,1.4-.26,2,1.7,2.95,2.17,4.55.74,2.49,1.44,5.04,1.08,7.7-2.07-.42-2.37-2.68-3.86-3.71Z"/>
      <path class="cls-1" d="m278.36,116.94c.72,2.02-.72,2.38-2.11,2.56-1.54.2-1.43-1.05-1.87-2.11-1.71-4.12,1.9-6.82,2.5-10.29.04-.25.81-.5,1.26-.52.72-.04,1.24.42,1.02,1.15-.3,1.02.22,1.65.77,2.34-1.06.25-2.12.48-2.98,1.24-1.34,1.2-1.43,2.81-1.2,4.35.21,1.37,1.46,1.4,2.61,1.28Z"/>
      <path class="cls-1" d="m9.26,98.82c-.58,3.4,1.69,5.87,2.84,8.7,1.04,2.54,2.9,4.9,1.34,7.88-2.01-1.33-1.47-3.55-2.08-5.4-1.46-4.43-3.71-8.61-5.64-12.89.27-.29.53-.59.8-.88.63.5,1.26,1.01,1.89,1.51.28.36.56.72.84,1.08Z"/>
      <path class="cls-1" d="m87.68,180.33c.41-.27.82-.55,1.23-.82,1.59,0,3.16.25,4.55,1.03.87.49,2.54-.15,2.61,1.35.08,1.72-1.65,1.39-2.68,1.81-.85.43-1.45,1.36-2.56,1.24-1.17-1.45-2.49-2.81-3.14-4.61Z"/>
      <path class="cls-1" d="m259.08,116c-1.57-2.54-.48-5.1,0-7.63.17-.9.99-1.73.02-2.62,0,0,.04,0,.04,0,.56-1.32-.55-1.99-1.13-2.86-.78-1.26.4-1.86.92-2.68,3.02,5.23,3.08,10.49.16,15.79Z"/>
      <path class="cls-1" d="m90.82,184.94c1.11.12,1.72-.82,2.56-1.24.37.42-.81,1.51.65,1.46,2.62-.09,5.24-.15,7.85-.22,0,0-.02,0-.02,0,.36.52.72,1.04,1.08,1.56-3.35.43-6.89-.78-10.07,1.13-.92-.48-1.82-.45-2.7.1-2-1.43-.99-2.17.63-2.78Z"/>
      <path class="cls-1" d="m145.42,196.94c2.44-1.69,5.34-2.25,8.04-3.3,2.61-1.01,2.18.74,2.21,2.17-.23.57-.46,1.13-.69,1.7-.2.04-.39.11-.57.21-2.99-.26-5.99-.52-8.98-.79Z"/>
      <path class="cls-1" d="m186.64,151.21c.29,2.48,3.45,5.14-.63,7.18-1.66.83-2.24,1.16-2.45-1.2-.25-2.76,1.59-4.17,3.08-5.98Z"/>
      <path class="cls-1" d="m115.78,191.5c3.22-.56,6.4-.33,9.57.34-.71.58-1.43,1.17-2.14,1.75-.6-.07-1.39-.43-1.76-.17-2.81,1.93-4.35.37-5.68-1.92Z"/>
      <path class="cls-1" d="m278.36,116.94c-1.15.12-2.4.09-2.61-1.28-.23-1.54-.15-3.15,1.2-4.35.86-.76,1.92-.99,2.98-1.24,2.15.99.44,1.71-.3,2.03-2,.85-2.03,2.1-1.12,3.72.09.22.21.43.36.62-.16.18-.33.35-.51.51Z"/>
      <path class="cls-1" d="m284.27,112.43c1.31,1.71,1.17,3.63.06,5.17-1.28,1.79-2.25,3.72-3.31,5.61-.61-.75-.85-1.7-.19-2.38,2.3-2.36,2.71-5.44,3.44-8.4Z"/>
      <path class="cls-1" d="m261.73,96.35c.79-.08,1.66.11,2.24-.69,1.89.28,2.27,1.57,2.11,3.19-.09.86-.56,1.25-1.47,1.19-2.4-.14-2.12-2.32-2.87-3.7Z"/>
      <path class="cls-1" d="m269.38,122.4c.51.76.88,1.88.08,2.25-.78.36-2.19.23-2.85-.28-.73-.58.14-1.57.66-2.18.7-.82,1.48-.64,2.11.22Z"/>
      <path class="cls-1" d="m108.56,186.67c.29.38.58.76.87,1.14-1.98,1.85-3.58.49-5.2-.63.23-.24.46-.48.69-.71.85.03,1.7.07,2.55.1.36.02.72.03,1.09.05v.05Z"/>
      <path class="cls-1" d="m281.03,123.18c.22.41.45.82.67,1.22-.35.3-.71.6-1.06.9-.66-.85-.44-1.54.39-2.12Z"/>
      <path class="cls-1" d="m127.32,189.61c.5-.24,1.01-.48,1.51-.71,0,.12.06.27,0,.34-.4.52-.91.66-1.52.39,0,0,0-.02,0-.02Z"/>
      <path class="cls-1" d="m108.55,186.63c-.36-.02-.72-.03-1.09-.05.36.02.72.03,1.09.05Z"/>
      <path class="cls-1" d="m104.92,186.48c-.23.24-.46.47-.69.71,0,0-.13-.07-.13-.07-.15-.24-.3-.47-.45-.7.43.02.85.04,1.28.06Z"/>
      <path class="cls-1" d="m103.64,186.41c.15.23.3.47.45.7-.34-.15-.68-.3-1.03-.46.19-.09.38-.17.57-.25Z"/>
      <path class="cls-1" d="m258.34,117.36c.14-.37.28-.74.43-1.1-.14.37-.28.74-.43,1.1Z"/>
      <path class="cls-1" d="m223.27,172.1c.3-.04.59-.09.89-.13-.3.04-.59.09-.89.13Z"/>
      <path class="cls-1" d="m10.5,40.13c2.17,6.2.29,11.2-4.56,15.31h-.02c-.93-.59-1.83-.54-2.71.11-.27-.24-.8-.65-.78-.69,2.47-3.73,2.76-8.26,4.54-12.25.79-1.77,1.99-2.18,3.53-2.48Z"/>
      <path class="cls-1" d="m.7,25.2c1.48.82,2.96,1.65,4.45,2.47-1.24,2.07-3.05-.29-4.45.59-.49-1.02-.7-2.04,0-3.06Z"/>
      <path class="cls-1" d="m10.87,35.4c.25,1.61.72,3.24-.38,4.75-1.88-1.74-1.65-3.32.38-4.75Z"/>
      <path class="cls-1" d="m5.94,55.44c.25.5.59,1.02-.11,1.44-.07.04-.27.01-.33-.05-.53-.65.04-.99.41-1.39,0,0,.02,0,.02,0Z"/>
      <path class="cls-1" d="m21.76,30.32c-.24-.39-.49-.77-.73-1.16,2.49-1.14,2.34-3.02.34-3.98-1.86-.88-3.34-2.34-5.27-3-1.42-3.21-3.02-6.32-5.47-8.9.27-3.25,3.64-3.51,5.26-5.45-.36,4.03-.99,8.1,1.68,11.69.52,2.43,1.67,3.85,4.4,2.78,0,0,.21,0,.21,0,.35.73.7,1.45,1.05,2.17-.1,1.83,1.5,3.32,1.05,5.22-.47.24-.94.48-1.42.72-.36-.03-.73-.06-1.09-.1Z"/>
      <path class="cls-1" d="m18.4.68c-.8,2.05-.68,4.45-2.32,6.19-.07-.72-.14-1.44-.21-2.16-2.5.4-3.26,5.3-6.88,2.59.12-1.29.6-2.17,1.95-2.78,1.73-.77,3.47-1.76,4.36-3.59.93-1.9,2.06-.31,3.1-.25Z"/>
      <path class="cls-1" d="m10.62,13.29c2.45,2.58,4.05,5.68,5.47,8.9-.58,2.68,3.73,2.55,3.04,5.29-2.04,0-2.3-1.97-3.35-3.04-.92-.93-1.25-2.47-2.85-2.68-1.09-2.73-3.9-5-2.31-8.46Z"/>
      <path class="cls-1" d="m16.09,6.78c-.08.37-.16.74-.23,1.11.08-.37.16-.74.23-1.11Z"/>
      <path class="cls-1" d="m21.96,22.3c-2.73,1.07-3.88-.36-4.4-2.78,1.3,1.19,3.31,1.26,4.4,2.78Z"/>
      <path class="cls-1" d="m23.22,24.48c-.35-.72-.7-1.45-1.05-2.17.53-.11,1.26-.79,1.53-.16.32.71.22,1.67-.48,2.34Z"/>
      <path class="cls-1" d="m178.83,193.57c.05-.42.29-.6.71-.53-.24.17-.47.35-.71.53Z"/>
      <path class="cls-1" d="m177.07,192.44c-4.36,2.03-9.19,1.48-13.72,2.53,3.91-4.65,8.77-7.31,14.96-6.76,1.19.11,1.55-1.26,2.78-.82-.63,2.27-2.88,3.24-4.02,5.05Z"/>
      <path class="cls-2" d="m192.03,183.56s-.04.01-.06.02h0c-.19-1.12.61-1.52,1.4-1.92.36,1.22-.42,1.62-1.34,1.9Z"/>
      <path class="cls-1" d="m134.84,202.72c-.4.24-.81.48-1.21.71.52-3.29,2.64-4.62,5.77-4.72.21.29.42.59.63.88-1.65,1.18-3.89,1.37-5.19,3.13Z"/>
      <path class="cls-2" d="m189.33,130.03c-.12-.09-.17-.2-.18-.35,1.69-.86.65-2.52,1.09-3.74.33-.25.65-.5.98-.76.75-.42,1.49-.84,2.26-1.27.69,2.26-3.03,6.12,2.47,6.4,1,.17,2,.34,3.01.51.16.87.59,1.3,1.51.96,1.45-.54,2.35-2.3,4.34-1.79.33.09.28-1.02-.07-1.56.62-1.31.78-2.7.75-4.12,1.79.14,1.63,1.68,2.09,2.82.52,1.31,1.15.77,1.71-.02,1.03.74.48,2.28,1.3,3.23,1.29-1.22-.45-3.52,1.94-3.92-.14,1.61-.29,3.23-.43,4.84-.43.4-.79.84-.61,1.49,0,0,0-.04,0-.04-1.19.77-3.47-.63-3.7,2.26-.13,1.66-2.45-.78-3.19.88-.97.01-1.93.02-2.9.03-5.25.4-8.81-2.74-12.38-5.87Z"/>
      <path class="cls-1" d="m212.53,126.43c-2.39.4-.65,2.7-1.94,3.92-.82-.95-.27-2.49-1.3-3.23-.13-2.05-.25-4.1-.42-6.79,2.17,2.04,3.65,3.63,3.66,6.1Z"/>
      <path class="cls-1" d="m205.48,124.31c.04,1.43-.13,2.82-.75,4.12-2.38-.31-3.49,2.48-5.79,2.39-1-.17-2-.34-3.01-.51.45-1.35,1.62-1.99,2.81-1.9,3.3.24,4.99-1.91,6.73-4.1Z"/>
      <path class="cls-1" d="m258,102.89c.58.87,1.68,1.54,1.13,2.86-.57-.88-1.49-1.61-1.13-2.86Z"/>
      <path class="cls-1" d="m211.49,132.76c-.18-.65.18-1.08.61-1.49.23.67-.15,1.09-.61,1.49Z"/>
      <path class="cls-1" d="m3.45,88.58c-.32-.3-.3-.59.03-.86,0,.29-.02.57-.03.86Z"/>
      <path class="cls-2" d="m191.26,141.77c-1.21-1.63-1.87-3.63-.21-5,1.54-1.28,3.03.62,4.69.96-.72,1.66-3.2.91-3.21,2.94-.42.36-.85.73-1.27,1.1Z"/>
      <path class="cls-1" d="m182.14,142.79c-.72.53-1.53.76-2.52.68,1.9-2.69,2.88-5.93,5.52-8.05.57,2.3,2.14,3.62,4.09,4.87,1.22.78.86,2.47.05,3.68-.2.31-.83.45-1.26.45-.24,0-.71-.66-.69-.69,2.32-2.72-1.05-2.05-1.7-2.44-1.48-.89-2.82-.18-3.49,1.5Z"/>
      <path class="cls-1" d="m141.57,196.76c-4.63-.99-9.41-.53-14.04-1.51,5.27-3.34,10.6-1.71,16.16-.76-.57,1.47-1.4,1.81-2.12,2.26Z"/>
      <path class="cls-2" d="m214.14,175.05c-.82.58-1.63,1.2-2.72,1.07.88-.42,1.45-1.63,2.72-1.07Z"/>
      <path class="cls-1" d="m99.96,194.87c.73-.59,1.47-1.18,2.2-1.77,5.5-.45,6.8-1.39,7.26-5.29q2.47,1.74.44,3.36c-.57.45-1.22.82-1.25,1.66-.58.37-1.16.74-1.74,1.11-.61.12-1.22.24-1.84.36-1.69.18-3.38.37-5.08.55Z"/>
      <path class="cls-1" d="m114.14,191.79c.49-.41,1.02-.64,1.64-.29-.5.4-1.02.61-1.64.29Z"/>
      <path class="cls-1" d="m16.82,120.17c-1.66,0-2.27-.76-1.7-2.36,1.3.26,1.87,1.05,1.7,2.36Z"/>
      <path class="cls-2" d="m19.14,27.47c.69-2.74-3.62-2.61-3.04-5.29,1.93.67,3.42,2.12,5.27,3,2,.95,2.15,2.83-.34,3.98-1.08-.06-1.36-1.02-1.89-1.69Z"/>
      <path class="cls-1" d="m162.29,149.38c0-1.67.8-2.29,2.93-2.37-1.37,1.1-2.15,1.74-2.93,2.37Z"/>
      <path class="cls-1" d="m190.24,125.94c-.44,1.22.6,2.88-1.09,3.74.28-1.27-2.04-3.3,1.09-3.74Z"/>
    </g>
  </g>
</svg>