<?xml version="1.0" encoding="UTF-8"?>
<svg id="Layer_2" data-name="Layer 2" xmlns="http://www.w3.org/2000/svg" viewBox="0 0 273.76 187.82">
  <defs>
    <style>
      .cls-1 {
        fill: #e30613;
      }

      .cls-2 {
        fill: #100c08;
      }
    </style>
  </defs>
  <g id="Layer_1-2" data-name="Layer 1">
    <g>
      <path class="cls-1" d="m222.55,14.95c-2.5-1.15-5.11-1.92-8.08-1.52.2,1.42-.74,1.95-2.42,1.91,2.59,2.1,5.17,4.2,7.76,6.31.16-1.26-.04-2.14-.93-2.92-.86-.76-1.84-1.98-.78-2.77.77-.58,2.28.11,3.3.74.96.6,1.98,1.15,3.02,1.67,3.85,1.94,6.44,1.06,6.79-2.35,1.86,1.71,1.72,4.12,3.55,5.76,4.61,4.12,10.37,6.63,17.24,7.6-.64-1.06-1.65-1.77-3.15-2-3.19-1.04-7.54-.69-8.53-4.37-2.94-1.95-3.47-4.83-4.68-7.45-.88-1.83-1.75-3.66-2.63-5.49-.19-.07-.38-.15-.57-.23-.79.04-1.58.08-2.38.12.53,1.69-.27,1.99-2.09,1.22-.55-.11-1.09-.22-1.64-.32,0,.39-.02.79-.03,1.18,1.83.33,2.63,1.47,2.81,2.7.12.85-1.56,1.35-2.12,1.21-1.47-.37-3.8,1.37-4.45-1.01Z"/>
      <path class="cls-1" d="m230.07,9.97c.79-.04,1.58-.08,2.38-.12-.12-.42-.24-.84-.36-1.26-.33-.48-.67-.97-1-1.45-.16-.24-.32-.49-.48-.73-.36-.34-.72-.69-1.08-1.03-.74.13-1.13.56-1.43,1.06.66,1.17,1.32,2.35,1.98,3.52Z"/>
      <path class="cls-1" d="m160.06,4.13c-.1.8.93,1.83-.37,2.35-.87.35-1.92-.16-2.7-.61-2.41-1.41-5.23-1.91-8.1-2.32-.22,1.41,1.24,1.4,2.34,1.74,1.67.52,3.69.46,4.93,1.73,2.03.97,3.43,2.92,6.21,2.69,1.57-.13,4.43.17,1.93-2.34-1.17-1.18.37-.94,1.21-.89.2-1.09-1.39-.58-1.73-1.19-1.05-.5-2.1-.99-3.15-1.49-.19.11-.38.22-.58.33Z"/>
      <path class="cls-1" d="m156.16,7.02c-1.24-1.27-3.26-1.21-4.93-1.73-1.1-.34-2.56-.34-2.34-1.74-.94-.36-2.12-.41-2.69-1.26-1.65-.39-3.3-.78-4.95-1.17,1.15,1.04,2.29,2.08,3.44,3.12,3.83.93,7.65,1.86,11.48,2.79Z"/>
      <path class="cls-1" d="m156.19.5c-.4-.17-.8-.33-1.2-.5-1.43,1.47.77,1.66,1.45,2.21,1,.8,2.39,1.3,3.62,1.93.19-.11.38-.22.57-.33-1.48-1.1-2.96-2.21-4.44-3.31Z"/>
      <path class="cls-2" d="m251.98,29.35s-.01.02-.01.03c.01,0,.02,0,.03,0l-.02-.03Zm1.04,1.48v-.03s-.02.02-.02.02t.02,0ZM149.47,7.97l.04-.02s-.04,0-.06,0h0s.02.02.02.02ZM63.53,29.21s.01,0,.02,0h0s0,0,0,0h0Z"/>
      <path class="cls-2" d="m262.22,46.16c-1.5-1.09-1.33-2.18-.69-3.43-.84-1.08-2.28-2.01-1.46-3.52l-.14-.14c-.42-.1-.49-.31-.31-.6-.04-.15-.09-.31-.14-.46-1.63-2.02-2.98-4.21-5.91-5.4-.83-.34-.91-1.09-.58-1.79-.94-.22-1.35-.68-1.03-1.45-6.85-.97-12.6-3.48-17.21-7.59-1.84-1.64-1.69-4.05-3.55-5.76-.35,3.41-2.94,4.28-6.79,2.35-1.03-.52-2.05-1.07-3.02-1.67-1.01-.63-2.53-1.32-3.29-.74-1.06.79-.08,2.01.78,2.77.88.78,1.09,1.66.93,2.92-2.58-2.1-5.17-4.2-7.75-6.31-1.36-.9-2.59-1.94-4.42-2.29-.83,3.42.69,5.58,4.77,6.64,2.96.77,5.04,2.3,7.15,4.33-4.52.33-6.81-2.39-10.15-3.2-5.32-1.3-10.69-2.51-15.94-3.96-6.36-1.75-13.22-3.07-15.91-8.88-.49-1.53-2.69-1.89-3.56-3.16-1-.77-1.71-2.13-3.59-1.08,1.44.91,2.2,1.98,1.26,3.43.86.56,2.75.31,2.37,1.84,2.9,1.46,4.56,3.97,7.53,5.64-5.05-.94-10.24.01-15.16-1.34-.86-.23-1.68-.53-1.71-1.32-.02-.82.9-1.13,1.69-1.36,1.47-.41,3.26-.39,3.76-1.94-1.83-.34-3.5-.86-4.51-2.21h-.12c-.85-.03-2.37-.27-1.21.9,2.5,2.51-.36,2.21-1.93,2.34-2.78.23-4.18-1.72-6.21-2.69-3.83-.93-7.65-1.86-11.48-2.79.14.79.63,1.38,1.55,1.73,1.07.66,2.15,1.33,3.22,1.99.02,0,.04,0,.06,0,2.58-1.55,4.69-.99,6.9,1.83-1.85.45-3.28-.71-4.97-.76.68,2.37,4.11,1.84,6.22,3.28-7.93,1.43-15.1.36-22.32-.93-8.04-1.43-16.19-2.53-23.97-4.79-.4-.11-.94.1-1.42.15.39.36.79.73,1.19,1.09,3.23,1.14,5.9,3.15,9.57,3.7-5.76.06-11.46.52-17.67-.63,1.53,1,2.34,2,3.91,2.49-2.12.26-3.98.73-5.92,1.36-4.03,1.31-8.11,2.91-13.08,2.22-2.69-.37-5.65-1.32-8.56-.49.71.18,1.45.35,1.66,1.03.86.25,1.72.51,2.58.77.85.39,1.7.78,2.56,1.16.5-.35,1.02-.38,1.57-.09.07.04.07.17.1.26-.55-.05-1.11-.1-1.66-.16-1.74,1.67-4.47,1.27-6.7,1.89-1.11.31-2.41.12-3.15,1.2-1.48,2.18-4.14,3.11-7.03,3.72v.04c-.33.1-.67.2-1,.3-.8.24-1.6.47-2.39.7-.4.12-.79.24-1.19.36-.21,0-.42-.02-.63-.04l-.05.16c-.17.47-.35.94-.52,1.42h0c3.25.01,6-2.25,9.37-1.32.87.24,2.14-1.22,2.3.21.1,1-1.72,1.32-2.54,1.19-2.29-.37-4.04.19-5.91,1.12-1.01.51-1.76,2.06-3.33,1.2-1.27-.7,2.02-.69.73-1.71-.24-.2-.42-.46-.63-.69,0,0-.01,0-.02,0h0c-2.51.59-5.01,1.18-7.51,1.77-1.41.32.06.84-.16,1.25,1.11.06,2.65-.61,3.12.68.4,1.13-1.38,1.06-2.05,1.65-1.07.93-2.47,1.5-3.99,1.9-.45.52-.9,1.05-1.34,1.57,1.01.7,2.28-.41,2.96.3-1.78,2.9-4.72,4.95-7.85,6.65-2.56,1.41-4.64,4.22-8.76,3.04-.79.1-1.57.2-2.36.3-1.04.69-2.08,1.38-3.12,2.07.03.91,1.12.77,1.74,1.1,2.71-.54,5.41-1.07,8.12-1.61-2.16,1.55-2.59,5.57-8.07,2.58,1.93,7.19-3.61,10.92-9.51,14.41,1.17.78,3.35.26,2.58,1.63-1.33,2.38-2.43,5.02-6.08,6.01-1.47.61-1.73,2.59-4.07,2.22-.08.14-.15.28-.22.42-.44,1.82-2.94,3.08-2.35,5.41,2.32-1.25,2.95-.86,2.14,1.12-.87,2.12-2.05,4.26-2.2,6.43-.19,2.64-1.98,4.48-3.6,6.5-.47.59-.95,1.24-1.94,1.12-1.16-.14-1.28-1.04-1.68-1.74-.76-1.31.65-2.63-.09-3.94-.51,1.19-1.18,2.34-1.51,3.56-.51,1.93-2.4,3.75-1.35,5.82.83,1.63.64,3.14.28,4.78-.71,3.3-1.26,6.62-1.87,9.93-.15.34-.31.67-.46,1.01,1.59,1.09.76,2.57.92,3.86.2,1.61.29,3.17,2.27,5.16-.23-2.45-.4-4.14-.53-5.84-.08-1.1-.06-1.1,4.4-3.57-1.67,2.04-1.11,3.73-1.6,5.32-.11.38.04,1.09.27.99,3.34-1.46,2.48,1.25,2.42,1.81-.5,4.91.3,9.92-1.88,14.69-.62,1.21.05,2.37.19,3.55,2.57.03,1.77-1.45,1.74-2.48-.09-2.86-.06-5.67,2.18-8.58.95,3.75,3.03,2.69,5.22,1.15-.22-.62-.45-1.24-.68-1.86-1.12-1.59-2.23-3.19-3.35-4.79-.59.62-.29,1.75-2.24,2,.57-1.7.77-3.33,1.67-4.68.92-1.36.81.6,1.49.51.3-1.04.45-2.02-.01-3.13-1.4-3.42-.76-6.6,1.61-9.76,1.34-1.8,1.96-3.99,2.55-6.07.34-1.2,0-2.54-2.47-1.4.42-1.07.88-1.98,1.15-2.93,1.06-3.71,3.38-6.35,8.71-6.61.84-.05,1.4-.63,1.37-1.21-.19-2.98,2.14-5.3,3.21-7.94,3.58-8.86,8.87-16.96,17.17-23.67,3.79-3.07,6.07-7.37,11.76-8.92.53-.14,1.23-.62,1.29-1,.58-3.6,4.13-4.54,7.76-5.16,6.28-1.08,7.15-.43,6.68,5.09,1.13-2.84,2.1-5.11,2.92-7.42.39-1.08.97-1.82,2.51-1.41,1.98.52,4.77-2.39,6.11.88.01.02.79-.01,1-.18,1.65-1.32,4.12-1.27,5.9-2.08,7.25-3.28,14.63-6.54,21.17-10.58,4.92-3.03,10.2-4.87,15.98-6.19,4.1-.94,7.75.51,9.12,3.41,1.07,2.26,1.39,2.42,3.81.57,1.36-1.03,2.03-.69,3.03.07,1.24.96,1.83,2.06,1.31,3.43,2.51,1.03,2.03,3.62,4.15,4.84.32-.46,2.64,1.88,1.54-.7-.26-.61-.51-2.05,1.56-1.17.64.27.97.2,1.29-.43,1.28-2.52,4.05-2.64,6.95-2.47.12-.29.25-.59.37-.89,2.63-2.16,5.23-4.35,7.9-6.49.93-.75,1.82-1.45,3.52-1.08,4.73,1,9.73.14,14.53,1.37,1.57.4,2.87.4,3.77,1.68,1.16,1.65,7.02,2.6,9.12,1.65,3.8-1.74,4.57-1.56,6.69,1.45.95,1.36,2.86,2.24,4.21,1.32,1.54-1.05,3.08-1.01,4.88-.93-.46-.79-1.73-.55-1.54-1.52,2.04.66,4.84.79,5.46,2.52.62,1.73,1.98,1.94,3.55,2.21,2.52.43,5.08.72,7.63,1.04,2.28.29,4.84.09,4.67,2.93-.14,2.4-.62,4.09-4.45,2.93-.24-.07-.64.22-.97.34l.02.02c.25.24.51.48.75.72l.2.04.18.08c4.44,3.21,6.04,7.14,4.83,11.78-1.43.58-1.68,1.74-1.77,2.74-.11,1.15-.36,1.95-1.89,2.34-.51.12-1.24.53-1.27.83-.06.7.82.92,1.55,1.02,2.77.37,5.56.54,8.36.14.05-.12.1-.25.16-.37-2.15-.54-4.22-1.07-1.76-3.2.36-.31.35-.89.51-1.34.27-1.22-.68-2.77,1.56-3.47.85-.26,1.43-.09,1.77.53.67,1.17.71,2.22-1,2.9.59,1.13-.63,2.32.18,3.44.52.49.92,1.1,1.88,1.12-.75-1.97-.22-3.83.79-5.66.35-1.77,1.38-3.44,1.24-5.28.12-.38.26-.75.37-1.13.98-3.34,1.64-3.51,5.06-1.19.57.38,1.12,1.02,1.86.65,3.92-2,6.4.99,9.53,1.67.58.12,1.14.89.83,1.47-.35.65-1.14.49-1.92.36-.51-.09-.45-1.57-1.36-.39-.43.55-.2,1.1.65,1.43,3.69,1.44,2.15,2.61-.35,3.71,2.44,1.01,4.77-.79,7.19-.15.34-.97-1.39-2.42,1.41-2.88,1.04-.17,1.17-1.5.47-2.49-1.27-1.77-2.68-3.4-5.31-4.06-1.92.6-3.74,1.53-5.79.04ZM8.19,105.03c.14,3.38-2.44,6.24-3.15,10.15-.22-4.1,1.54-7.11,3.15-10.15Zm51.26-59.73c-16.22,12.4-29.26,26.46-38.49,42.65,1.59-3.17.87-6.79,3.71-9.63,5.02-5.02,5.9-12.18,13.29-16-.59-.74-2.5-.3-2.41-1.5.09-1.11,1.63-1.16,2.58-1.33,2.29-.41,3.95-1.77,4.86-2.99,3.22-4.34,9.05-6.59,12.78-10.46.84-.87,1.94-1.44,3.68-.74Zm100.26-16.99c-.15-1.04.07-2.34,1.36-2.4,2.28-.11,4.44-2.59,6.03-1.28,1.63,1.33-1.32,2.74-2.26,4.11-.24.34-.4.71-.69,1.03-.67.74-1.66.72-2.61.64-1.06-.49-1.7-1.14-1.83-2.09Zm-9.91,1.34c-.54-1.8.11-1.7,1.94-1.49,4.51.5,2.36,3.26,2.86,5.18-1.98-.98-4.16-1.57-4.8-3.69Zm-87.14,10.36c.05,1.26-.58,1.97.25,2.51h0s0,0,0,0h0c-.23.2-.45.39-.67.59-1.3-.94-.31-1.69.43-3.11Zm135.57-18.75c-6.13.34-11.96-1.13-17.91-1.86-5.94-.73-11.88-1.42-18.08-2.16,2.25-1.99,32.29,1.44,35.99,4.02Zm4.58,5.26c-.98-1.66-4.37-.71-5.26-2.94,2.3.7,5.55-.3,5.26,2.94Zm39.4,7.78c-.32.79-1,1.12-1.93.68-.68-.33-1.82-.85-1.31-1.46.45-.55,1.76-.99,2.61-.92.87.08.88,1.01.63,1.69Zm12.98,5.13c.8.05,2.65.17.92,1.44-.29.64-.59,1.24.01,1.93.44.49.09.96-.61,1.11-.43.09-1.24.1-1.36-.08-1.66-2.44-5.95-3.55-5.62-7.03.09-.9-.41-1.8,1.11-2.03,1.38-.21,2.86-.3,2.81,1.38.22.07.44.16.65.25.29.16.58.31.87.47-.34.03-.68.05-1.02.08-.35,1.43.07,2.36,2.24,2.49Z"/>
      <path class="cls-1" d="m207.64,13.06c1.83.34,3.06,1.39,4.42,2.28,1.68.04,2.62-.49,2.42-1.91-2.94.23-5.08-1.13-7.2-2.35-2.11-1.21-3.86-1.99-6.56-.68-3.33,1.62-6.91.8-10.29-.33-.89-.3-.37-.76-.09-1.17-1.36-1.76-1.96.78-3.09.34,0,.14,0,.29-.04.43,4.35,2.98,9.63,2.55,14.78,2.38,2.08-.07,4.13-.62,5.65,1.02Z"/>
      <path class="cls-1" d="m222.55,14.95c.65,2.38,2.98.64,4.45,1.01.56.14,2.24-.36,2.12-1.21-.18-1.23-.98-2.38-2.81-2.7-.77.24-2.58-.48-1.5,1.35.57.96-2.01.52-2.25,1.55Z"/>
      <path class="cls-1" d="m227.98,11.19c-1.28-1.8-3.45-2.64-5.78-3.3.85,1.45,2.14,2.51,4.14,2.98.55.11,1.09.22,1.64.32Z"/>
      <path class="cls-1" d="m241.21,23.05c-.29-.01-.59-.02-.89-.04.99,3.67,5.34,3.33,8.53,4.37.19-.54.37-1.09.56-1.63-.18-.1-.36-.2-.54-.31-3.42.9-5.25-1.32-7.66-2.4Z"/>
      <path class="cls-1" d="m9.5,147.02c.41.91.82,1.82,1.22,2.73,1.04.27,1.91.09,2.61-.58-.48-.2-1.12-.32-.83-.93.03-.06.21-.14.29-.12.8.14.63.61.55,1.05,5.9,1.86,9.26,5.11,9.15,10.25,0,0,0-.01,0-.01,1.52.85,1.59,2.17,1.86,3.44.7,1.46,1.06,3.01.77,4.52-.29,1.53-1.77,2.4-3.77,2.64-1.15.98-2.29,1.96-3.44,2.94-.07.35-.13.7-.2,1.05,1.27,1.46,2.52,2.94,4.74,3.64.48-1.25-1.25-2.71.54-3.82,2.66-1.65,3.92-3.82,4.29-6.41.13-.89.6-1.76,2.19-1.33-1.22-5.19-3.06-10.2-7-14.59-.61-.48-1.18-.98-1.82-1.43-5.54-3.9-5.9-5.64-2.61-10.91,1.2-1.92,1.93-3.99-.1-5.95-2.19,1.55-4.27,2.61-5.22-1.15-2.24,2.91-2.28,5.72-2.18,8.58.03,1.03.82,2.51-1.74,2.48.04,1.34,1.7,2.5.69,3.95Z"/>
      <path class="cls-2" d="m29.48,166.06c-1.59-.43-2.06.44-2.19,1.33-.37,2.59-1.63,4.77-4.29,6.41-1.79,1.11-.06,2.57-.54,3.82,1.79.6,2.98,1.7,3.96,2.97,1.4-.24.67.48.64.88.12.17.23.35.35.52,1.09.41,2.86.22,2.67,1.8.45.13.9.26,1.35.4,2.58-2.91,4.85.54,7.35.22-.16-.55-.32-1.1-.49-1.66l.03.06c-.19-.26-.38-.51-.57-.77,0,0,.04.04.04.04-2.15-1.05-5.43-.41-6.71-2.75-2.61-2.18-.65-4.56-.48-6.86-.81-2.09-.07-4.35-1.13-6.41Z"/>
      <path class="cls-1" d="m28.42,183.61c.56.06,1.11.12,1.67.18.2-1.58-1.57-1.39-2.66-1.8.33.54.66,1.08,1,1.62Z"/>
      <path class="cls-1" d="m27.07,181.47c.03-.4.76-1.12-.64-.88.21.29.43.58.64.88Z"/>
      <path class="cls-1" d="m132.57,3.4c-.81-.96-2.18-1.23-3.39-1.7-.92-.23-1.84-.45-2.76-.68-.35.16-.7.31-1.05.47,0,0,0,0,0,0,2.26.93,4.52,1.87,6.78,2.8l.41-.9Z"/>
      <path class="cls-1" d="m132.57,3.4c-.14.3-.28.6-.42.9.12.25.24.5.36.75,1.66,1.06,4.1,1.23,5.41,2.76-1.03.63-1.81-.29-2.9.08-5.71,1.94-11.16,1.16-16.33-1.33-1.67-.46-3.34-.93-5.01-1.39-.67-.16-1.34-.32-2.01-.48-.27-.05-.54-.11-.81-.16-1.71-.14-3.41-.29-5.12-.43.32,1.61,2.6,1.57,3.59,2.62.2.03.4.03.61.01.48-.06,1.02-.27,1.42-.15,7.78,2.26,15.92,3.36,23.97,4.79,7.22,1.29,14.38,2.36,22.32.93-2.12-1.44-5.54-.91-6.22-3.28h-.06c-.88-.1-1.76-.2-1.93-1.08l.03.02c-1.08-.67-2.16-1.34-3.25-2-.26,1.52-1.42,1.43-2.95,1.16-3.17-.57-5.82-1.96-8.61-3.13-.37.16-.65.08-.84-.22-.42-.12-.83-.25-1.25-.37Z"/>
      <path class="cls-1" d="m13.92,126.52c1.12,1.6,2.24,3.19,3.35,4.79.26-1.12.83-2.25.74-3.35-.53-6.55,2.43-12.63,4.02-18.89.46-1.82,2.44-3.2,4.6-3.32,2.07-.11,2.57-1.02,3.01-2.01.82-1.81,1.68-3.57,3.42-4.97.57-.46.87-1.04.51-1.59-.88-1.33.27-2.06,1.01-3.09,1.47-2.05,3.74-4.13,3.04-6.58-.36-1.25-.55-1.79.77-2.59,3.79-2.31,4.69-6.13,6.83-9.2,1.15-1.65,2.01-3.56,3.71-5.04,3.2-2.78,8.79-3.65,10.22-7.86.01-.03.29.02.35-.03,4.74-4.08,11.66-5.65,17-9.01,3.11-1.95,3.63-.73,3.86,1.46,3.41-4.31,7.04-8.3,13.73-10.01,4.74-1.21,9.46-2.75,13.71-4.76,7.16-3.4,15.26-5.24,22.32-8.74.72-.36,1.58-.47,2.32.23.78.74,1.95.37,2.93.51,4.44.66,8.7-1.29,13.09-.36.53-1.37-.07-2.47-1.31-3.43-.99-.76-1.66-1.1-3.02-.07-2.43,1.84-2.75,1.68-3.82-.58-1.37-2.9-5.02-4.35-9.12-3.41-5.78,1.32-11.06,3.16-15.98,6.19-6.55,4.04-13.93,7.3-21.18,10.58-1.78.81-4.25.76-5.89,2.08-.21.17-.99.21-1,.18-1.34-3.26-4.13-.36-6.1-.88-1.54-.4-2.12.33-2.51,1.41-.82,2.31-1.8,4.58-2.93,7.41.46-5.52-.4-6.17-6.68-5.09-3.64.63-7.18,1.56-7.76,5.16-.06.38-.76.85-1.29,1-5.69,1.55-7.97,5.85-11.76,8.91-8.31,6.72-13.59,14.82-17.18,23.68-1.07,2.64-3.4,4.97-3.21,7.94.04.58-.53,1.17-1.37,1.21-5.33.27-7.65,2.9-8.71,6.61-.27.95-.73,1.86-1.15,2.93,2.48-1.14,2.81.21,2.47,1.4-.59,2.08-1.21,4.27-2.55,6.07-2.36,3.16-3.01,6.35-1.6,9.76.46,1.11.31,2.09,0,3.13-.31.72-.61,1.45-.91,2.17Z"/>
      <path class="cls-1" d="m80.37,55.26c-.23-2.19-.76-3.41-3.86-1.46-5.34,3.35-12.26,4.92-17,9.01-.06.05-.34,0-.35.03-1.43,4.2-7.02,5.08-10.22,7.86-1.71,1.48-2.57,3.39-3.71,5.04-2.14,3.07-3.04,6.89-6.83,9.2-1.32.8-1.13,1.34-.77,2.59.7,2.45-1.57,4.53-3.04,6.58-.74,1.03-1.88,1.76-1.01,3.09.36.55.06,1.13-.51,1.59-1.74,1.4-2.6,3.16-3.42,4.97-.45.98-.95,1.9-3.01,2.01-2.15.11-4.13,1.5-4.6,3.32-1.59,6.26-4.55,12.34-4.02,18.89.09,1.1-.48,2.23-.74,3.35.23.62.45,1.24.68,1.86,2.03,1.96,1.3,4.03.1,5.95-3.29,5.27-2.94,7.02,2.61,10.91.64.45,1.22.95,1.82,1.43.77-1.27,2.22-2.57,2.14-3.81-.1-1.63,2.68-3.81-.05-4.73-4.19-1.42-3.4-2.67-.82-4.51.42-.3.84-.79.88-1.22.15-1.97.27-3.78,3.92-2.91.85.2,1.07-.66,1.3-1.2.43-1.01,2.72-7.05-1.07-7.78-.96-.19-2.26-1.51-1.2-1.79,2.2-.58.94-1.51.89-2.26-.06-.87.12-1.4,1.15-1.9,1.7-.84,2.55-2.86,5.42-1.97.8.25,1.34-.7,1.61-1.37.49-1.21,2.39-6.68-.4-7.18-.99-.18-1.84-.79-.81-1.36,3.15-1.73.71-6.92,6.88-6.76.33,0,.8-.9,1.04-1.42.51-1.1.9-2.22,1.37-3.33.64-1.5.7-3.54,4-2.54.53.16,1.46-.02,1.42-.61-.21-2.98-.83-7.32-.37-9.12.63-2.43.94-5.27,3.72-7.01,2.66-1.67,5.24-3.36,7.51-5.36.74-.65,1.04-1.74,2.74-1.69,3.51.12,6.06-1.81,8.88-2.99,2.69-1.13,2.36-2.66-.49-4.11-1.38-.7-1.16-1.3.16-1.53,4.05-.71,5.75-3.46,8.22-5.55l-.14-.19Z"/>
      <path class="cls-1" d="m184.48,39.25c2.34-2.29,5.25-1.58,8.1-.89,1.04.25,1.98.73,2.97,1.11.06-.06.1-.13.18-.17.04-.02.13,0,.2,0-.13.05-.26.1-.38.15-.59,1.81,1.16,3.02,1.93,4.47.06.11.82.18.97.06,2.28-1.92,4.45-.25,6.51.23,3.42.79,7.24.24,10.36,1.99,2.93,1.65,5.9,3.19,9.79,3.08.51-.01,1.05.93,1.59,1.44.13-.1.36-.19.41-.32,1.5-3.4,4.01-4.13,8.08-2.36.85.37,1.68.79,2.52,1.18.64-.9-.4-1.32-.85-1.94-1.25-1.77-3.09-3.4-2.4-5.67l-.18-.08s-.2-.04-.2-.04c-.25-.24-.5-.48-.75-.72,0,0-.03-.01-.03-.01-3.8-1.31-6.14-5.38-11.51-3.72-.06.02-.33-.19-.37-.32-.89-2.76-4.26-1.7-6.34-2.22-3.92-.98-7.26-3.35-11.69-3.13-.15,0-.26-.59-.53-.7-.73-.32-1.53-.36-2.34,0,.53.31,1,.58,2.27,1.31-5.58-1.03-10.37-.5-15.19-1.59-2.55-.57-6.05-1.78-9.38.09-1.47.82-1.37,1.26-.63,1.84,2.68,2.1,3.89,5.08,6.91,6.96Z"/>
      <path class="cls-1" d="m148.48,32.14c-4.39-.93-8.65,1.02-13.09.36-.97-.15-2.15.23-2.93-.51-.74-.71-1.6-.59-2.32-.23-7.06,3.5-15.17,5.34-22.32,8.74-4.24,2.02-8.97,3.55-13.71,4.76-6.69,1.71-10.32,5.7-13.73,10.01,0,0,.13.19.13.19,1.08.14,2.82.91,3.12.34,1.55-2.96,5.9-2.23,8.1-4.06,1.41-1.18,2.94-1.68,4.87-1.58.82.04,1.45-.03,1.83-.67,2.03-3.43,6.86-3.51,10.4-4.89,4.63-1.81,9.82-2.74,14-5.36.67-.42,1.54-.72,2.41-.24.8.43.39,1.03.26,1.59-.12.54-.68,1.08.17,1.81,1.21-.75,3.28,0,4.13-.72,1.77-1.49-1.92-1.54-1.71-2.82,2.12-1.77,4.37.53,6.65-.1.84-.23,3.66-1.07,2.73,1.56-.31.87,1.28.72,1.61.56,2.85-1.32,6.27-.54,9.17-1.6,1.49-.54,2.86-1.49,4.72-1l-.36-1.27c-2.12-1.22-1.64-3.82-4.15-4.84Z"/>
      <path class="cls-1" d="m184.48,39.25c-3.02-1.88-4.23-4.85-6.91-6.96-.74-.58-.83-1.01.63-1.84,3.33-1.87,6.82-.66,9.38-.09,4.82,1.09,9.61.56,15.19,1.59-1.28-.73-1.74-1.01-2.27-1.31.81-.35,1.61-.32,2.34,0,.27.12.38.71.53.7,4.43-.22,7.77,2.15,11.69,3.13,2.08.52,5.45-.53,6.34,2.22.04.13.31.34.37.32,5.37-1.66,7.71,2.42,11.51,3.72.33-.12.74-.41.97-.34,3.82,1.16,4.3-.52,4.45-2.93.17-2.84-2.4-2.65-4.67-2.93-2.55-.32-5.11-.62-7.63-1.05-1.56-.27-2.94-.48-3.55-2.21-.61-1.73-3.42-1.86-5.46-2.52-.19.98,1.08.74,1.55,1.53-1.8-.07-3.35-.12-4.89.93-1.35.92-3.25.04-4.21-1.32-2.12-3.02-2.89-3.19-6.69-1.46-2.1.96-7.96,0-9.12-1.65-.9-1.28-2.21-1.28-3.77-1.68-4.8-1.23-9.8-.37-14.53-1.37-1.7-.36-2.58.34-3.51,1.09-2.66,2.14-5.27,4.33-7.9,6.49.61.06,1.25.21,1.84.15,9.64-1.01,12.83,1.71,10.31,8.81,1.23,1.05,2.66-1.33,3.3-.13,1.13,2.09,2.86.49,4.23.77.15-.56.3-1.12.46-1.67Z"/>
      <path class="cls-1" d="m207.64,13.06c-1.51-1.64-3.57-1.08-5.65-1.02-5.15.17-10.43.6-14.78-2.38-1.02-.68-2.29-.85-3.55-1.04-.3.04-.59.08-.89.12-1.62-.77-3.38-.92-5.22-.77,2.69,5.82,9.55,7.13,15.91,8.89,5.26,1.45,10.62,2.66,15.94,3.96,3.34.82,5.63,3.53,10.16,3.2-2.1-2.03-4.19-3.55-7.15-4.33-4.08-1.06-5.59-3.23-4.77-6.64Z"/>
      <path class="cls-1" d="m8.61,139.53c2.19-4.77,1.38-9.78,1.89-14.69.06-.56.92-3.27-2.42-1.81-.23.1-.38-.61-.27-.99.49-1.59-.07-3.29,1.6-5.33-4.46,2.47-4.49,2.47-4.41,3.57.13,1.7.31,3.39.53,5.84-1.98-1.99-2.07-3.56-2.27-5.17-.16-1.29.67-2.77-.92-3.86-.44.53-.88,1.06-1.32,1.59-.17,2.15-.34,4.3-.51,6.45.1.21.2.42.3.63,0,.22-.02.44-.03.66,2.11,2.83,4.75,5.69,4.53,9.02-.15,2.36.76,3.42,3.28,4.08Z"/>
      <path class="cls-1" d="m21.26,74.49c3.65-.98,4.75-3.63,6.08-6,.77-1.37-1.41-.85-2.58-1.63,5.9-3.49,11.44-7.21,9.51-14.41,5.47,2.99,5.9-1.03,8.06-2.58-2.7.54-5.41,1.07-8.11,1.61-1.06,2.4-2.37,4.66-5.41,5.96-2.73,1.64-3.63,4.67-7.17,5.72-.53.16-.77.93-1.15,1.42,1.19,1.89,1.32,3.96,1.41,5.99.05,1.3-1.51,2.49-.63,3.92Z"/>
      <path class="cls-1" d="m176.49,40.29c2.52-7.1-.67-9.82-10.31-8.81-.59.06-1.22-.1-1.84-.15-.12.3-.25.59-.37.89,1.17,1.09,1.34,2.11-.92,1.92-3.12-.27-2.42.78-1.53,2.11.63.94,2.13,1.81.44,2.96.52.17,1.03.34,1.55.5,3.15-.56,6.26,1.63,9.53,0,.66-.33.77.72.69,1.28.92-.23,1.84-.46,2.76-.69Z"/>
      <path class="cls-1" d="m161.97,39.2c1.69-1.15.18-2.02-.44-2.96-.89-1.33-1.59-2.38,1.53-2.11,2.26.19,2.09-.83.92-1.92-2.9-.18-5.67-.06-6.95,2.46-.32.64-.65.7-1.29.43-2.07-.88-1.82.55-1.56,1.17,1.1,2.58-1.22.24-1.54.7.12.43.24.85.36,1.27,1.3.81.9,1.63,0,2.44,1.16,1.09,2.65,1.28,3.78.25.49-.45,3.91-.78.85-2.23-.03-.02.2-.62.43-.68.41-.11,1.05-.16,1.34.02,1.15.7,2.02,1.87,1.11,2.75-1.46,1.41-2.52,2.78-2.34,4.63,1.14.75,3.18.29,3.81,1.72.62.42,1.24.83,1.86,1.25,2.4-3.21,4.79-6.42,9.89-7.42.09-.57-.03-1.61-.69-1.28-3.26,1.63-6.38-.55-9.53,0,.65,1.51,2.76.34,3.97,1.39-1.47.66-2.28,2.44-4.14,1.87-2.01-.61-2.01-2.26-1.38-3.77Z"/>
      <path class="cls-1" d="m101.06,9.52c-1.98-.23-3.85-1.16-5.96-.63-.11.27-.21.54-.32.81.89.3,1.79.61,2.68.91.83.16,1.72.21,2.73,1.16-4.97,2.08-9.51,4.61-15.57,3.43l-4.88-.91c-.97.79-2.39.52-3.53.92.6,1.12,2,1.02,3.18,1.27,2.92-.83,5.88.11,8.57.49,4.96.69,9.05-.92,13.08-2.22,1.94-.63,3.79-1.1,5.92-1.36-1.57-.49-2.37-1.49-3.9-2.49,6.21,1.15,11.92.69,17.67.63-3.67-.55-6.34-2.56-9.57-3.7.42,1.07,1.38,2.27-1.41,2.16-2.9-.11-5.82.19-8.67-.46Z"/>
      <path class="cls-1" d="m7.26,92.02c.73,1.3-.67,2.62.08,3.94.4.69.53,1.6,1.68,1.74.98.12,1.46-.53,1.94-1.12,1.62-2.02,3.41-3.87,3.59-6.5.15-2.17,1.33-4.31,2.2-6.42.81-1.98.18-2.37-2.14-1.12-.59-2.33,1.91-3.59,2.35-5.41-2.43-.51-2.4,1.7-3.93,2.18-.25.32-.49.63-.74.95-1.18,2.19-1.55,4.63-3.29,6.65-.16.36-.32.72-.48,1.08.81,1.58-.94,2.63-1.32,3.97l.06.08Z"/>
      <path class="cls-1" d="m37.96,48c4.13,1.18,6.19-1.63,8.76-3.04,3.12-1.7,6.06-3.75,7.84-6.65-.69-.7-1.95.4-2.96-.3.44-.52.89-1.04,1.33-1.57-.47-.1-.95-.2-1.42-.31-2.23.86-4.46,1.72-6.69,2.58,1.3,1.26.55,2.48-.64,3.24-2.65,1.69-3.95,4.16-6.23,6.05Z"/>
      <path class="cls-1" d="m170.13,8.68c-.5,1.55-2.29,1.53-3.76,1.94-.79.22-1.71.54-1.69,1.36.02.79.85,1.09,1.71,1.32,4.92,1.35,10.12.41,15.17,1.34-2.97-1.66-4.63-4.17-7.53-5.63-.28-.07-.57-.13-.85-.2-1.03.73-1.95-.03-2.92-.13h-.13Z"/>
      <path class="cls-1" d="m8.61,139.53c-2.52-.66-3.43-1.72-3.28-4.08.21-3.33-2.42-6.18-4.54-9.02-.25.2-.5.4-.75.6.21,1.58,1.92,2.85,1.56,4.56,1.98,1.8,2.27,4.05,1.16,5.97-1.04,1.8,1.37.79,1.84,1.7,1.12,2.19-.04,4.98,2.74,6.7.69.43,1.31.86,2.15,1.06,1.02-1.45-.64-2.61-.69-3.95-.15-1.18-.82-2.34-.2-3.55Z"/>
      <path class="cls-1" d="m37.96,48c2.28-1.88,3.58-4.36,6.23-6.05,1.18-.75,1.94-1.98.64-3.24-2.39-.76-3.97,1.88-6.4.95-.56-.28-.82-.67-.68-1.2-.87.06-.68.71-.89,1.08-.35.59-.45,1.27-.66,1.91,1.31.45,2.71-1.14,4.15.19-1.64.63-2.25,1.69-2.24,3,0,1.38-.9,2.29-2.39,2.9-.04.25-.07.5-.11.75.79-.1,1.58-.2,2.36-.31Z"/>
      <path class="cls-1" d="m73,21.08c-1.8.52-3.89-.65-5.58.58.3.62,1.03.73,1.71.93q2.44.7.64,2.61s0,0,0,0c-.16.36-.31.71-.47,1.07,2.89-.62,5.55-1.55,7.03-3.72.74-1.08,2.03-.89,3.15-1.2,2.24-.62,4.95-.22,6.7-1.9,0,0,0-.01,0-.01-.85-.39-1.71-.77-2.56-1.16-2.8,1.28-5.75,2.24-8.98,2.62,0,0,0,0,0,0-.48.42-1.05.37-1.65.19Z"/>
      <path class="cls-1" d="m2.81,116.1c.61-3.31,1.16-6.63,1.87-9.93.35-1.63.54-3.15-.28-4.78-1.05-2.06.84-3.88,1.35-5.82.32-1.22.99-2.38,1.51-3.56,0,0-.06-.08-.06-.08-2.34,1.75-2.16,4.46-3.96,6.41.57.94.28,1.66-.87,2.18-.27.74-.55,1.48-.82,2.21,2.41,1.82,1.4,4.04,1.21,6.18-.21,2.39-1.58,4.79.05,7.17Z"/>
      <path class="cls-1" d="m161.54,30.4c.95.08,1.94.1,2.61-.64.28-.31.46-.68.69-1.03.94-1.38,3.88-2.78,2.26-4.12-1.59-1.31-3.75,1.17-6.04,1.28-1.29.06-1.5,1.36-1.35,2.4.14.95.77,1.6,1.83,2.09Z"/>
      <path class="cls-1" d="m17.99,68.29c2.25.87,2.59,2.3,1.41,3.83-1.12,1.45-1.51,3.05-2.21,4.58,2.34.37,2.6-1.61,4.07-2.22-.88-1.42.68-2.61.63-3.92-.09-2.04-.22-4.1-1.41-5.99-1.83.82-1.4,2.58-2.49,3.71Z"/>
      <path class="cls-1" d="m252.45,36.13c.05-1.68-1.43-1.59-2.81-1.38-1.52.23-1.03,1.13-1.11,2.03-.33,3.48,3.96,4.6,5.62,7.03.12.17.93.17,1.36.08.7-.15,1.04-.62.61-1.11-.6-.68-.31-1.29-.01-1.93-1.09.07-2.16.17-3.22-.19-1.65-.56-2.24-1.74-2.51-2.94-.24-1.07.94-1.4,2.07-1.6Z"/>
      <path class="cls-1" d="m2.81,116.1c-1.63-2.38-.25-4.78-.05-7.17.19-2.14,1.2-4.36-1.21-6.18-1.49,1.49-.27,3-.27,4.52.01,3.66-.8,7.31-1.28,10.97.35.15.69.3,1.04.46.44-.53.88-1.06,1.32-1.59.15-.34.3-.67.46-1.01Z"/>
      <path class="cls-1" d="m51.51,36.14c.47.1.95.2,1.42.31,1.51-.4,2.92-.96,3.99-1.89.67-.58,2.45-.52,2.05-1.65-.46-1.3-2-.62-3.11-.68-.94-.11-1.8-.65-2.82-.29-.65,1.37-1.48,2.7-1.53,4.21Z"/>
      <path class="cls-1" d="m234.45,41.59c-.69,2.27,1.15,3.91,2.4,5.67.44.63,1.49,1.04.85,1.94,0,0,.04,0,.04,0,.94.84.11,1.61-.17,2.4-.34,1.13.97,1.28,1.72,1.76,1.21-4.63-.38-8.56-4.83-11.78Z"/>
      <path class="cls-1" d="m53.04,31.93c1.02-.36,1.89.18,2.82.29.22-.4-1.25-.92.16-1.25,2.51-.58,5.02-1.18,7.52-1.78,0,0-.01,0-.01,0,.18-.47.36-.95.54-1.43-3.32.51-6.29,2.28-9.92,1.65-.72.59-1.58.79-2.59.59-1.45,1.56-.26,1.86,1.48,1.91Z"/>
      <path class="cls-1" d="m101.06,9.52c2.85.65,5.77.35,8.67.46,2.79.11,1.83-1.09,1.41-2.16-.4-.36-.8-.73-1.2-1.09-.2.02-.41.01-.61-.01-2.76.94-5.52,1.87-8.28,2.81Z"/>
      <path class="cls-1" d="m154.6,33.33c-.51-1.92,1.65-4.68-2.86-5.18-1.84-.21-2.49-.31-1.94,1.5.64,2.11,2.82,2.7,4.81,3.68Z"/>
      <path class="cls-1" d="m74.65,20.89c3.23-.38,6.18-1.34,8.98-2.62-.86-.26-1.72-.51-2.58-.77-.54.2-1.18.66-1.62.56-3.28-.74-4.24.8-4.78,2.83Z"/>
      <path class="cls-1" d="m252.45,36.13c-1.13.19-2.31.52-2.07,1.6.27,1.2.86,2.38,2.51,2.94,1.05.36,2.13.26,3.22.19,1.73-1.27-.13-1.38-.92-1.43-2.16-.14-2.59-1.06-2.24-2.49.02-.19.07-.37.15-.55-.21-.09-.43-.18-.64-.25Z"/>
      <path class="cls-1" d="m259.48,38.02c.71-1.59-.03-2.99-1.57-3.86-1.78-1.01-3.31-2.21-4.92-3.35-.34.71-.27,1.48.57,1.82,2.93,1.18,4.28,3.37,5.92,5.4Z"/>
      <path class="cls-1" d="m243.17,55.54c.78-.14,1.54-.5,2.34-.04,1.7-.67,1.66-1.73,1-2.89-.35-.62-.93-.79-1.77-.52-2.24.69-1.28,2.24-1.56,3.46Z"/>
      <path class="cls-1" d="m242.21,34.29c.25-.69.24-1.61-.63-1.69-.85-.08-2.15.37-2.61.92-.51.61.63,1.13,1.31,1.46.93.44,1.61.11,1.93-.68Z"/>
      <path class="cls-1" d="m69.32,26.26c.16-.36.31-.71.47-1.07-2.47-.88-3.55.52-4.74,1.75.29.12.59.24.88.36.8-.23,1.59-.47,2.39-.7.34-.1.68-.2,1.01-.31v-.04Z"/>
      <path class="cls-1" d="m253.02,30.84c.08-.36.17-.72.25-1.07-.43-.14-.86-.27-1.29-.41-.35.79.07,1.26,1.04,1.48Z"/>
      <path class="cls-1" d="m86.2,19.44c.55.05,1.11.1,1.66.16-.03-.09-.03-.22-.1-.26-.54-.29-1.07-.27-1.56.08,0,0,0,.01,0,.01Z"/>
      <path class="cls-1" d="m69.33,26.3c-.34.1-.68.2-1.01.31.34-.1.68-.2,1.01-.31Z"/>
      <path class="cls-1" d="m65.93,27.31c-.29-.12-.59-.24-.88-.36,0,0-.1.09-.1.09-.07.21-.14.42-.21.63.4-.12.79-.24,1.19-.36Z"/>
      <path class="cls-1" d="m64.73,27.67c.07-.21.14-.42.21-.63-.28.2-.55.39-.83.59.21.02.41.04.62.04Z"/>
      <path class="cls-1" d="m233.32,40.76c.25.24.5.48.75.72-.25-.24-.5-.48-.75-.72Z"/>
      <path class="cls-1" d="m182.77,8.75c.3-.04.59-.08.89-.12-.3.04-.59.08-.89.12Z"/>
      <path class="cls-1" d="m22.5,159.42c.1-5.14-3.26-8.39-9.15-10.25h-.02c-.7.68-1.57.86-2.61.59-.18.24-.56.68-.52.7,3.52,2.16,5.22,5.45,8.17,7.98,1.3,1.12,2.58,1.13,4.13.97Z"/>
      <path class="cls-1" d="m17.92,172.93c1.15-.98,2.29-1.96,3.44-2.94-1.83-1.24-2.81.97-4.41.66-.14.88-.02,1.69.97,2.27Z"/>
      <path class="cls-1" d="m24.35,162.84c-.27-1.26-.34-2.59-1.86-3.44-1.24,1.76-.52,2.87,1.86,3.44Z"/>
      <path class="cls-1" d="m13.35,149.16c.08-.43.24-.9-.55-1.05-.08-.02-.26.06-.29.12-.3.61.35.73.83.93,0,0,.02,0,.02,0Z"/>
      <path class="cls-1" d="m36.29,163.92c-.11.35-.22.69-.33,1.04,2.72.23,3.17,1.67,1.58,2.87-1.48,1.12-2.43,2.56-4.06,3.54-.33,2.74-.87,5.44-2.39,7.97,1.28,2.35,4.56,1.71,6.71,2.75-1.62-2.9-3.49-5.77-2.1-9.1-.28-1.93.37-3.27,3.29-3.16,0,0,.2-.05.2-.06.1-.63.21-1.25.31-1.88-.67-1.34.37-2.84-.65-4.14-.52-.06-1.05-.12-1.57-.18-.33.11-.67.23-1,.34Z"/>
      <path class="cls-1" d="m42.45,186.79c-1.41-1.33-2.05-3.14-4.15-4.03.16.55.32,1.1.49,1.66-2.5.32-4.76-3.13-7.35-.22.53.93,1.25,1.47,2.73,1.58,1.88.15,3.84.45,5.27,1.59,1.48,1.18,2.05-.28,3.02-.58Z"/>
      <path class="cls-1" d="m31.09,179.34c1.51-2.52,2.05-5.23,2.39-7.97-1.4-1.85,2.73-2.82,1.22-4.68-1.94.5-1.56,2.03-2.22,3.09-.58.92-.41,2.15-1.86,2.7-.17,2.3-2.13,4.68.48,6.86Z"/>
      <path class="cls-1" d="m38.33,182.82c-.19-.26-.38-.51-.57-.77.19.26.38.51.57.77Z"/>
      <path class="cls-1" d="m39,169.83c-2.93-.12-3.57,1.23-3.29,3.16.86-1.21,2.74-1.75,3.29-3.16Z"/>
      <path class="cls-1" d="m39.51,167.9c-.11.62-.21,1.25-.31,1.88.54-.05,1.44.27,1.51-.26.08-.6-.32-1.29-1.19-1.62Z"/>
      <path class="cls-1" d="m133.82,3.77c.18.3.46.37.84.22-.28-.07-.56-.14-.84-.22Z"/>
      <path class="cls-1" d="m132.52,5.04c-4.77-.43-9.18,1.17-13.82,1.51,5.17,2.49,10.63,3.27,16.33,1.33,1.09-.37,1.87.56,2.9-.08-1.31-1.53-3.75-1.7-5.41-2.76Z"/>
      <path class="cls-2" d="m149.51,7.95s-.04,0-.06,0h0c.17.88,1.05.98,1.93,1.08-.05-1-.91-1.1-1.87-1.08Z"/>
      <path class="cls-1" d="m89.2,7.84c-.46-.08-.92-.15-1.38-.23,1.53,2.32,3.96,2.78,6.97,2.08.11-.27.21-.54.32-.81-1.93-.47-4.12-.06-5.91-1.04Z"/>
      <path class="cls-2" d="m163.84,48.41c-.08.09-.1.19-.06.3,1.87.22,1.41,1.71,2.21,2.51.39.11.78.21,1.16.32.84.13,1.68.25,2.54.39-.06-1.85-4.81-3.8.33-5.37.9-.37,1.79-.75,2.69-1.12-.12-.68.15-1.11,1.13-1.09,1.54.04,2.96,1.13,4.68.26.29-.15.59.69.43,1.18,1,.82,1.59,1.81,2.01,2.88,1.66-.55,1.02-1.65,1.09-2.62.08-1.1.85-.86,1.63-.41.74-.81-.26-1.81.21-2.72,1.61.59.68,2.73,3.08,2.43-.65-1.16-1.29-2.33-1.94-3.49-.54-.19-1.01-.43-1.05-.96,0,0,.02.03.02.03-1.37-.28-3.1,1.32-4.23-.77-.65-1.2-2.08,1.19-3.3.13-.92.23-1.84.46-2.76.69-5.1,1-7.49,4.22-9.89,7.42Z"/>
      <path class="cls-1" d="m186.99,45.35c-2.39.3-1.47-1.85-3.08-2.43-.47.91.53,1.92-.21,2.72.53,1.56,1.05,3.11,1.74,5.15,1.42-2.05,2.32-3.6,1.55-5.44Z"/>
      <path class="cls-1" d="m180.97,48.66c-.41-1.07-1.01-2.06-2.01-2.88-2.17.82-4.1-.98-6.24-.35-.9.37-1.79.75-2.69,1.12.86.89,2.16,1.08,3.26.72,3.06-.99,5.34.19,7.68,1.38Z"/>
      <path class="cls-1" d="m237.57,51.61c.28-.79,1.11-1.56.17-2.4-.26.79-.91,1.57-.17,2.4Z"/>
      <path class="cls-1" d="m184.01,40.9c.03.53.51.76,1.05.96,0-.55-.49-.77-1.05-.96Z"/>
      <path class="cls-1" d="m.53,125.15c-.21.3-.1.51.3.63-.1-.21-.2-.42-.3-.63Z"/>
      <path class="cls-2" d="m161.97,39.2c-.64,1.51-.63,3.16,1.38,3.77,1.86.57,2.68-1.21,4.14-1.87-1.21-1.05-3.32.11-3.97-1.39-.52-.17-1.03-.33-1.55-.5Z"/>
      <path class="cls-1" d="m152.99,40.69c-.85-.22-1.69-.19-2.61.12,2.65,1.53,4.6,3.7,7.78,4.62-.18-1.85.88-3.22,2.34-4.63.91-.88.04-2.05-1.11-2.75-.29-.18-.93-.13-1.34-.02-.23.06-.47.67-.43.68,3.06,1.45-.35,1.78-.85,2.23-1.13,1.03-2.62.83-3.78-.25Z"/>
      <path class="cls-1" d="m97.47,10.61c-4.08,1.88-8.76,2.72-12.85,4.59,6.06,1.18,10.6-1.35,15.57-3.43-1.01-.95-1.9-1-2.73-1.16Z"/>
      <path class="cls-2" d="m173.18,8.81c-.96-.23-1.92-.49-2.92-.13.97.09,1.89.86,2.92.13Z"/>
      <path class="cls-1" d="m58.58,22.3c.88.26,1.77.51,2.65.77,5.36-1.03,6.89-.64,8.56,2.14q1.79-1.9-.64-2.61c-.68-.2-1.42-.31-1.71-.93-.67-.13-1.34-.26-2-.39-.62.06-1.24.12-1.86.18-1.66.28-3.33.56-4.99.84Z"/>
      <path class="cls-1" d="m73,21.08c.6.18,1.17.22,1.65-.19-.6-.17-1.16-.2-1.65.19Z"/>
      <path class="cls-1" d="m3.25,98.36c-1.57.41-1.92,1.12-.87,2.18,1.15-.52,1.44-1.24.87-2.18Z"/>
      <path class="cls-2" d="m34.69,166.69c1.52,1.87-2.61,2.83-1.22,4.68,1.62-.97,2.57-2.42,4.06-3.54,1.6-1.2,1.14-2.64-1.58-2.87-1,.31-.96,1.09-1.26,1.72Z"/>
      <path class="cls-1" d="m132.08,40.71c.52,1.25,1.48,1.5,3.53,1.04-1.65-.48-2.59-.76-3.53-1.04Z"/>
      <path class="cls-1" d="m165.99,51.22c-.81-.8-.34-2.29-2.21-2.51.67.88-.89,2.95,2.21,2.51Z"/>
    </g>
  </g>
</svg>